<svg width="139" height="122" viewBox="0 0 139 122" fill="none" xmlns="http://www.w3.org/2000/svg">
<g filter="url(#filter0_d_2968_8348)">
<path fill-rule="evenodd" clip-rule="evenodd" d="M111.275 10.0996C112.675 10.0996 113.81 11.295 113.81 12.7696V86.776L113.81 86.7951L113.81 86.8141V98.9304H125.566C126.967 98.9304 128.102 100.126 128.102 101.6C128.102 103.075 126.967 104.27 125.566 104.27H111.275C109.874 104.27 108.739 103.075 108.739 101.6V89.465H99.7516V101.6C99.7516 103.075 98.6166 104.27 97.2165 104.27H85.3547C84.2437 108.537 80.5347 111.673 76.1304 111.673C71.7261 111.673 68.0171 108.537 66.9061 104.27H43.1818C42.0707 108.537 38.3617 111.673 33.9574 111.673C29.5531 111.673 25.8441 108.537 24.7331 104.27H12.6367C11.2366 104.27 10.1016 103.075 10.1016 101.6V71.9901C10.1016 70.5155 11.2366 69.3201 12.6367 69.3201H38.4511V34.9771C38.4511 33.5025 39.5861 32.3072 40.9862 32.3072H55.03L55.0439 32.3071L55.0577 32.3072H68.1709C71.0363 32.3071 73.8528 33.0886 76.3462 34.5754C78.8396 36.0622 80.9249 38.2038 82.399 40.7915L99.3592 70.5618C99.608 70.9748 99.7521 71.4647 99.7521 71.99C99.7521 72.0069 99.7519 72.0237 99.7516 72.0404V84.1251H108.739V12.7696C108.739 11.295 109.874 10.0996 111.275 10.0996ZM66.906 98.9304C68.0169 94.6632 71.726 91.5277 76.1304 91.5277C80.5348 91.5277 84.2439 94.6632 85.3548 98.9304H94.6813V89.465H90.1881C88.788 89.465 87.653 88.2696 87.653 86.7951C87.653 85.3205 88.788 84.1251 90.1881 84.1251H94.6813V74.66H55.0439C53.6437 74.66 52.5087 73.4646 52.5087 71.99V37.6471H43.5214V71.9901C43.5214 73.4646 42.3864 74.66 40.9862 74.66H15.1719V84.1253H19.6656C21.0657 84.1253 22.2007 85.3206 22.2007 86.7952C22.2007 88.2698 21.0657 89.4652 19.6656 89.4652H15.1719V98.9304H24.733C25.844 94.6632 29.553 91.5277 33.9574 91.5277C38.3619 91.5277 42.0709 94.6632 43.1818 98.9304H66.906ZM80.6239 101.559C80.6029 98.9643 78.5992 96.8676 76.1304 96.8676C73.6486 96.8676 71.6367 98.9865 71.6367 101.6C71.6367 104.214 73.6486 106.333 76.1304 106.333C78.5991 106.333 80.6028 104.236 80.6239 101.642C80.6237 101.628 80.6236 101.614 80.6236 101.6C80.6236 101.587 80.6237 101.573 80.6239 101.559ZM33.9574 96.8676C36.4351 96.8676 38.4444 98.9794 38.4511 101.587L38.4511 101.6L38.4511 101.614C38.4443 104.221 36.435 106.333 33.9574 106.333C31.4756 106.333 29.4638 104.214 29.4638 101.6C29.4638 98.9865 31.4756 96.8676 33.9574 96.8676ZM92.7389 69.32L78.0513 43.5388C77.0276 41.7419 75.5795 40.2547 73.848 39.2222C72.1166 38.1897 70.1607 37.647 68.1709 37.6471H57.579V69.32H92.7389Z" fill="url(#paint0_linear_2968_8348)"/>
</g>
<defs>
<filter id="filter0_d_2968_8348" x="0.00156212" y="-0.000391006" width="138.2" height="121.772" filterUnits="userSpaceOnUse" color-interpolation-filters="sRGB">
<feFlood flood-opacity="0" result="BackgroundImageFix"/>
<feColorMatrix in="SourceAlpha" type="matrix" values="0 0 0 0 0 0 0 0 0 0 0 0 0 0 0 0 0 0 127 0" result="hardAlpha"/>
<feOffset/>
<feGaussianBlur stdDeviation="5.05"/>
<feComposite in2="hardAlpha" operator="out"/>
<feColorMatrix type="matrix" values="0 0 0 0 0 0 0 0 0 0.741176 0 0 0 0 0.976471 0 0 0 0.5 0"/>
<feBlend mode="normal" in2="BackgroundImageFix" result="effect1_dropShadow_2968_8348"/>
<feBlend mode="normal" in="SourceGraphic" in2="effect1_dropShadow_2968_8348" result="shape"/>
</filter>
<linearGradient id="paint0_linear_2968_8348" x1="69.1021" y1="111.679" x2="69.1021" y2="12.0363" gradientUnits="userSpaceOnUse">
<stop stop-color="#00C2FF"/>
<stop offset="1" stop-color="#0074A2"/>
</linearGradient>
</defs>
</svg>
