<svg width="139" height="143" viewBox="0 0 139 143" fill="none" xmlns="http://www.w3.org/2000/svg">
<g filter="url(#filter0_d_2968_8347)">
<path fill-rule="evenodd" clip-rule="evenodd" d="M86.5667 10.0996C85.3931 10.0996 84.3189 10.6911 83.6163 11.4267C82.9144 12.1615 82.3422 13.2937 82.3422 14.539C82.3422 16.9547 84.1309 19.1025 86.5667 19.1025H88.9756V30.8839H102.4V28.2796H107.45C108.578 30.1849 110.603 31.38 112.745 31.38C116.283 31.38 119.102 28.4529 119.102 24.7083C119.102 20.9637 116.283 18.0366 112.745 18.0366C110.506 18.0366 108.576 19.2227 107.472 21.0129H102.4V19.1025H104.809C105.993 19.1025 107.027 18.5002 107.753 17.8917L107.818 17.8372L107.877 17.7754C108.606 17.012 109.151 15.8728 109.151 14.539C109.151 12.0346 107.28 10.0996 104.927 10.0996H86.5667ZM99.3996 27.7098H91.9756V15.9283H86.5667C85.9226 15.9283 85.3422 15.3478 85.3422 14.539C85.3422 14.2962 85.4807 13.9402 85.7264 13.6829C85.9715 13.4264 86.3187 13.2738 86.5667 13.2738H104.927C105.653 13.2738 106.151 13.8191 106.151 14.539C106.151 14.9097 106.011 15.235 105.818 15.4628C105.392 15.8014 105.033 15.9283 104.809 15.9283H99.3996V24.1871H109.347L109.739 23.2308C110.214 22.0702 111.334 21.2107 112.745 21.2107C114.656 21.2107 116.102 22.7482 116.102 24.7083C116.102 26.6684 114.656 28.2058 112.745 28.2058C111.447 28.2058 110.229 27.3447 109.753 26.0977L109.374 25.1055H99.3996V27.7098Z" fill="url(#paint0_linear_2968_8347)"/>
<path fill-rule="evenodd" clip-rule="evenodd" d="M39.3435 47.1315V62.5078H47.7923V55.3149H50.4781V62.5078H58.927V47.1315H39.3435ZM42.3435 52.8442V50.3057H55.927V52.8883C55.421 52.4079 54.7568 52.1408 54.1103 52.1408H44.1602C43.5103 52.1408 42.8575 52.3596 42.3435 52.8442ZM54.1103 57.7952C54.7568 57.7952 55.421 57.5282 55.927 57.0477V59.3337H53.4781V57.7952H54.1103ZM42.3435 59.3337V57.0918C42.8575 57.5764 43.5103 57.7952 44.1602 57.7952H44.7923V59.3337H42.3435Z" fill="url(#paint1_linear_2968_8347)"/>
<path fill-rule="evenodd" clip-rule="evenodd" d="M40.1327 40.2353C36.4764 40.2353 33.5392 43.2864 33.5392 47.155V60.0994C28.1531 62.0066 24.1814 67.2854 24.1814 73.6943V86.2795H74.0891V73.6943C74.0891 67.3142 70.0354 61.7843 64.4943 60.0486V47.155C64.4943 43.2864 61.5572 40.2353 57.9008 40.2353H40.1327ZM36.5392 47.155C36.5392 45.0709 38.1033 43.4095 40.1327 43.4095H57.9008C59.9302 43.4095 61.4943 45.0709 61.4943 47.155V62.6021L62.7092 62.8509C67.4536 63.8228 71.0891 68.3787 71.0891 73.6943V83.1053H27.1814V73.6943C27.1814 68.397 30.6908 64.0385 35.3919 62.8354L36.5392 62.5417V47.155Z" fill="url(#paint2_linear_2968_8347)"/>
<path fill-rule="evenodd" clip-rule="evenodd" d="M25.326 87.9812C22.9726 87.9812 21.1016 89.9161 21.1016 92.4206C21.1016 94.9691 23.1338 96.86 25.326 96.86H72.7076C75.0609 96.86 76.932 94.925 76.932 92.4206C76.932 89.9161 75.0609 87.9812 72.7076 87.9812H25.326ZM24.1016 92.4206C24.1016 91.7007 24.5996 91.1553 25.326 91.1553H72.7076C73.434 91.1553 73.932 91.7007 73.932 92.4206C73.932 93.1405 73.434 93.6859 72.7076 93.6859H25.326C24.6753 93.6859 24.1016 93.0965 24.1016 92.4206Z" fill="url(#paint3_linear_2968_8347)"/>
<path fill-rule="evenodd" clip-rule="evenodd" d="M87.4077 33.1721C82.9577 33.1721 79.2189 36.9718 79.2189 41.8412V122.924C79.2189 124.436 79.608 125.902 80.2889 127.176H66.4641L64.8922 124.18C70.2068 122.237 74.0046 116.986 74.0046 110.623V98.9761H24.5352V110.499C24.5352 116.744 28.3278 122.089 33.6493 124.053L32.0758 127.052H19.5812C18.8879 127.052 18.1938 127.304 17.6694 127.859C17.4077 128.136 17.2176 128.457 17.0927 128.801C16.9689 128.504 16.7942 128.226 16.5644 127.983C16.0399 127.428 15.3458 127.176 14.6526 127.176H12.775C12.0818 127.176 11.3877 127.428 10.8632 127.983C10.3389 128.538 10.1016 129.273 10.1016 130.006C10.1016 130.739 10.3389 131.473 10.8632 132.028C11.3877 132.584 12.0818 132.835 12.775 132.835H14.6526C15.3458 132.835 16.0399 132.584 16.5644 132.028C16.826 131.751 17.0162 131.43 17.1411 131.086C17.2648 131.383 17.4395 131.661 17.6694 131.904C18.1938 132.459 18.8879 132.711 19.5812 132.711H117.683C118.376 132.711 119.071 132.459 119.595 131.904C119.756 131.734 119.89 131.546 119.998 131.347C120.116 131.593 120.271 131.823 120.465 132.028C120.99 132.584 121.684 132.835 122.377 132.835H125.428C126.121 132.835 126.815 132.584 127.34 132.028C127.864 131.473 128.102 130.739 128.102 130.006C128.102 128.283 126.745 127.176 125.428 127.176H122.377C121.684 127.176 120.99 127.428 120.465 127.983C120.301 128.156 120.166 128.347 120.056 128.55C119.933 128.304 119.771 128.077 119.566 127.877C119.042 127.364 118.386 127.176 117.801 127.176H110.275C110.94 125.932 111.321 124.486 111.321 122.924V41.8412C111.321 37.1323 107.734 33.1721 103.132 33.1721H87.4077ZM64.2714 129.537H34.2033L38.2135 121.894L36.169 121.488C31.2325 120.508 27.5352 115.934 27.5352 110.499V102.15H71.0046V110.623C71.0046 116.173 67.3163 120.631 62.3709 121.612L60.3263 122.018L64.2714 129.537ZM103.088 129.537H87.4514L84.485 127.443C83.1373 126.492 82.2189 124.748 82.2189 122.924V41.8412C82.2189 38.7589 84.5822 36.3463 87.4077 36.3463H103.132C106.041 36.3463 108.321 38.8469 108.321 41.8412V122.924C108.321 124.857 107.415 126.483 106.055 127.443L103.088 129.537Z" fill="url(#paint4_linear_2968_8347)"/>
</g>
<defs>
<filter id="filter0_d_2968_8347" x="0.00156212" y="-0.000391006" width="138.2" height="142.936" filterUnits="userSpaceOnUse" color-interpolation-filters="sRGB">
<feFlood flood-opacity="0" result="BackgroundImageFix"/>
<feColorMatrix in="SourceAlpha" type="matrix" values="0 0 0 0 0 0 0 0 0 0 0 0 0 0 0 0 0 0 127 0" result="hardAlpha"/>
<feOffset/>
<feGaussianBlur stdDeviation="5.05"/>
<feComposite in2="hardAlpha" operator="out"/>
<feColorMatrix type="matrix" values="0 0 0 0 0 0 0 0 0 0.741176 0 0 0 0 0.976471 0 0 0 0.5 0"/>
<feBlend mode="normal" in2="BackgroundImageFix" result="effect1_dropShadow_2968_8347"/>
<feBlend mode="normal" in="SourceGraphic" in2="effect1_dropShadow_2968_8347" result="shape"/>
</filter>
<linearGradient id="paint0_linear_2968_8347" x1="69.1021" y1="132.843" x2="69.1021" y2="12.4398" gradientUnits="userSpaceOnUse">
<stop stop-color="#00C2FF"/>
<stop offset="1" stop-color="#0074A2"/>
</linearGradient>
<linearGradient id="paint1_linear_2968_8347" x1="69.1021" y1="132.843" x2="69.1021" y2="12.4398" gradientUnits="userSpaceOnUse">
<stop stop-color="#00C2FF"/>
<stop offset="1" stop-color="#0074A2"/>
</linearGradient>
<linearGradient id="paint2_linear_2968_8347" x1="69.1021" y1="132.843" x2="69.1021" y2="12.4398" gradientUnits="userSpaceOnUse">
<stop stop-color="#00C2FF"/>
<stop offset="1" stop-color="#0074A2"/>
</linearGradient>
<linearGradient id="paint3_linear_2968_8347" x1="69.1021" y1="132.843" x2="69.1021" y2="12.4398" gradientUnits="userSpaceOnUse">
<stop stop-color="#00C2FF"/>
<stop offset="1" stop-color="#0074A2"/>
</linearGradient>
<linearGradient id="paint4_linear_2968_8347" x1="69.1021" y1="132.843" x2="69.1021" y2="12.4398" gradientUnits="userSpaceOnUse">
<stop stop-color="#00C2FF"/>
<stop offset="1" stop-color="#0074A2"/>
</linearGradient>
</defs>
</svg>
