<svg width="90" height="143" viewBox="0 0 90 143" fill="none" xmlns="http://www.w3.org/2000/svg">
<g filter="url(#filter0_d_2968_8346)">
<path fill-rule="evenodd" clip-rule="evenodd" d="M50.6943 18.2809H39.0962C36.9609 18.2809 35.2305 20.1119 35.2305 22.3716V26.4612C35.2305 28.7209 36.9609 30.5519 39.0962 30.5519H50.6943C52.8291 30.5519 54.5601 28.7209 54.5601 26.4612V22.3716C54.5601 20.1119 52.8296 18.2809 50.6943 18.2809ZM39.0962 26.4612V22.3716H50.6943V26.4612H39.0962Z" fill="url(#paint0_linear_2968_8346)"/>
<path fill-rule="evenodd" clip-rule="evenodd" d="M44.5093 63.8454C44.5093 66.9132 47.5146 69.4777 50.9941 72.4349C56.0273 76.7157 62.292 82.0432 62.292 91.7671C62.292 100.818 55.7896 106.224 44.8955 106.224C34.0015 106.224 27.4985 100.818 27.4985 91.7671C27.6782 87.3561 29.502 83.2004 32.5703 80.2091C32.9136 79.9012 33.3394 79.7152 33.7876 79.677C34.2358 79.6377 34.6846 79.7493 35.0703 79.9942C35.4502 80.2556 35.7368 80.6441 35.8843 81.0977C35.9546 81.3147 35.9917 81.5399 35.9951 81.7652C35.9985 82.0121 35.9619 82.2601 35.8853 82.4978C35.6875 82.941 35.5947 83.4236 35.6099 83.9051C35.6182 84.1737 35.6602 84.4424 35.7363 84.7027C35.8584 84.8825 36.293 85.0727 37.1558 85.0727C37.7534 85.0727 38.3149 85.0726 38.3149 83.2324C38.2188 82.7282 38.0791 82.2353 37.8984 81.7611C37.6538 81.1194 37.334 80.5098 36.9453 79.9477C35.4653 77.719 34.6011 75.0986 34.4487 72.3791C34.4487 66.7644 37.6992 58.0427 44.6577 57.1634C45.1367 57.1024 45.6211 57.213 46.0337 57.4765C46.3301 57.6666 46.5781 57.928 46.7573 58.2369C46.8276 58.3578 46.8877 58.4859 46.936 58.6203C47.1074 59.0904 47.1245 59.6081 46.9844 60.0906C46.8447 60.5731 46.5552 60.9916 46.1636 61.2788C45.7227 61.5464 45.3447 61.9164 45.0581 62.3607C44.7715 62.805 44.584 63.3123 44.5093 63.8454ZM31.3643 91.7671C31.3643 100.785 39.8423 102.134 44.896 102.134C49.9482 102.134 58.4258 100.785 58.4307 91.7671C58.4307 84.0094 53.416 79.7452 48.5723 75.6235C44.6558 72.2964 40.9502 69.1388 40.6597 64.4344C39.188 66.7933 38.3779 69.5459 38.3228 72.3719C38.4985 74.3526 39.1738 76.2476 40.2778 77.8574C41.3589 79.4331 42.019 81.2868 42.189 83.2252C42.189 87.6031 39.5928 89.1571 37.1631 89.1571C36.2974 89.2398 35.4263 89.092 34.6284 88.7283C33.8306 88.3646 33.1309 87.7953 32.5933 87.073L32.5581 87.0214L32.5244 86.9687C31.7822 88.4473 31.3843 90.0922 31.3643 91.7671Z" fill="url(#paint1_linear_2968_8346)"/>
<path fill-rule="evenodd" clip-rule="evenodd" d="M56.4937 10.0996H33.2974C30.0952 10.0996 27.499 12.846 27.499 16.2361V35.0331C17.4272 37.0128 10.1182 46.3018 10.1016 57.1396V102.135C10.1055 105.876 10.9912 109.558 12.6787 112.847C14.3667 116.134 16.8027 118.925 19.7671 120.967V124.632C19.7671 129.15 23.2285 132.813 27.499 132.813H62.292C66.5625 132.813 70.0249 129.15 70.0249 124.632V120.967C72.9893 118.925 75.4253 116.134 77.1128 112.847C78.8003 109.558 79.686 105.876 79.6895 102.135V57.1396C79.6738 46.3018 72.3638 37.0128 62.2925 35.0331V16.2351C62.292 12.847 59.6958 10.0996 56.4937 10.0996ZM31.3647 16.2361C31.3647 15.9675 31.4146 15.7009 31.5117 15.4529C31.6089 15.2049 31.751 14.9797 31.9307 14.7896C32.1099 14.5994 32.3232 14.4486 32.5576 14.3453C32.792 14.243 33.0435 14.1903 33.2974 14.1903H56.4941C56.9414 14.1903 57.353 14.3504 57.6807 14.6211C58.1343 14.9952 58.4263 15.579 58.4263 16.2361V34.6415H31.3647V16.2361ZM66.1582 123.095V124.632C66.1582 126.892 64.4277 128.723 62.2925 128.723H27.499C25.3638 128.723 23.6328 126.892 23.6328 124.632V123.095C23.7349 123.138 23.8384 123.177 23.9429 123.214L24.2681 123.327L24.4829 123.399C24.7671 123.496 24.9971 123.592 25.2563 123.677C25.6431 123.795 26.0156 123.881 26.3989 123.988L26.7319 124.074C26.9053 124.118 27.0776 124.161 27.2529 124.192C27.665 124.279 28.083 124.333 28.4976 124.397C28.5928 124.411 28.6875 124.426 28.7822 124.442C28.8853 124.459 28.9883 124.477 29.0923 124.491C29.1567 124.501 29.2212 124.509 29.2861 124.515C29.6152 124.548 29.9448 124.575 30.2749 124.595C30.6362 124.615 30.998 124.626 31.3604 124.626H58.4263C59.1206 124.626 59.813 124.585 60.5005 124.515C60.6719 124.498 60.8403 124.47 61.0078 124.442C61.1016 124.426 61.1953 124.411 61.2896 124.397L61.4316 124.377C61.7993 124.324 62.1689 124.271 62.5337 124.192C62.6221 124.173 62.7095 124.152 62.7969 124.131C62.9946 124.083 63.1904 124.032 63.3887 123.988C63.7754 123.891 64.1616 123.795 64.5308 123.677C64.7935 123.592 65.0513 123.492 65.3042 123.399C65.4058 123.361 65.5186 123.324 65.6353 123.285C65.729 123.252 65.8257 123.22 65.9204 123.186C66.0015 123.157 66.0815 123.127 66.1582 123.095ZM75.8237 57.1396V102.135C75.7866 109.534 71.6001 116.204 65.1694 119.11C65.0835 119.147 64.9946 119.18 64.9062 119.212L64.7153 119.285C64.5376 119.359 64.3584 119.429 64.1782 119.498C63.8584 119.617 63.5352 119.727 63.209 119.825C62.9971 119.889 62.7817 119.944 62.5649 120.002C62.082 120.126 61.5933 120.229 61.0981 120.311L60.8965 120.344C60.769 120.367 60.6396 120.389 60.5049 120.407C59.8149 120.495 59.1211 120.54 58.4263 120.541H31.3647C31.1045 120.54 30.8442 120.533 30.5845 120.52C30.1504 120.496 29.7173 120.455 29.2861 120.399C29.0933 120.372 28.8906 120.333 28.6934 120.302C28.4175 120.256 28.1431 120.204 27.8701 120.144C27.6548 120.098 27.4399 120.047 27.2261 119.993C27.0093 119.936 26.7954 119.881 26.582 119.817C26.0723 119.664 25.5718 119.48 25.0767 119.278C24.9272 119.216 24.771 119.167 24.6221 119.102C18.1934 116.196 14.0083 109.531 13.9673 102.135V57.1396C13.979 46.9786 21.7612 38.7456 31.3647 38.7322H58.4263C68.0298 38.7456 75.812 46.9786 75.8237 57.1396Z" fill="url(#paint2_linear_2968_8346)"/>
</g>
<defs>
<filter id="filter0_d_2968_8346" x="0.00156212" y="-0.000391006" width="89.7859" height="142.913" filterUnits="userSpaceOnUse" color-interpolation-filters="sRGB">
<feFlood flood-opacity="0" result="BackgroundImageFix"/>
<feColorMatrix in="SourceAlpha" type="matrix" values="0 0 0 0 0 0 0 0 0 0 0 0 0 0 0 0 0 0 127 0" result="hardAlpha"/>
<feOffset/>
<feGaussianBlur stdDeviation="5.05"/>
<feComposite in2="hardAlpha" operator="out"/>
<feColorMatrix type="matrix" values="0 0 0 0 0 0 0 0 0 0.741176 0 0 0 0 0.976471 0 0 0 0.5 0"/>
<feBlend mode="normal" in2="BackgroundImageFix" result="effect1_dropShadow_2968_8346"/>
<feBlend mode="normal" in="SourceGraphic" in2="effect1_dropShadow_2968_8346" result="shape"/>
</filter>
<linearGradient id="paint0_linear_2968_8346" x1="44.8958" y1="132.821" x2="44.8958" y2="12.4393" gradientUnits="userSpaceOnUse">
<stop stop-color="#00C2FF"/>
<stop offset="1" stop-color="#0074A2"/>
</linearGradient>
<linearGradient id="paint1_linear_2968_8346" x1="44.8958" y1="132.821" x2="44.8958" y2="12.4393" gradientUnits="userSpaceOnUse">
<stop stop-color="#00C2FF"/>
<stop offset="1" stop-color="#0074A2"/>
</linearGradient>
<linearGradient id="paint2_linear_2968_8346" x1="44.8958" y1="132.821" x2="44.8958" y2="12.4393" gradientUnits="userSpaceOnUse">
<stop stop-color="#00C2FF"/>
<stop offset="1" stop-color="#0074A2"/>
</linearGradient>
</defs>
</svg>
