<svg width="112" height="140" viewBox="0 0 112 140" fill="none" xmlns="http://www.w3.org/2000/svg">
<g filter="url(#filter0_d_2968_8415)">
<path d="M88.9812 89.3399C92.8959 92.3484 94.7462 101.225 95.1311 104.398L98.0506 127.701L101.102 127.277L98.184 103.948C98.1229 103.432 96.578 91.1427 90.8026 86.7339C88.8672 85.3644 86.7932 84.2281 84.6193 83.346C84.4901 83.2398 84.3455 83.1564 84.191 83.0993L82.9207 82.6239C80.9944 81.8393 79.0444 81.1215 77.0737 80.4717L75.8855 80.0317C75.7682 79.9866 75.6459 79.9574 75.5217 79.9449C72.3039 78.8677 69.4789 78.072 67.9656 77.6536V74.092C70.2308 72.3801 72.0769 70.1206 73.35 67.5014C74.6232 64.8822 75.2867 61.9791 75.2852 59.0338V56.2929C75.7971 56.4898 76.3366 56.5944 76.8813 56.6021C77.4918 56.6022 78.0964 56.475 78.6605 56.2279C79.2245 55.9807 79.7371 55.6184 80.1688 55.1616C80.6005 54.7048 80.9429 54.1625 81.1766 53.5657C81.4101 52.9689 81.5303 52.3292 81.5303 51.6832V47.296C81.5299 46.1066 81.1161 44.9589 80.3677 44.0714C80.8621 43.2361 81.1146 42.2659 81.0941 41.2805V39.4076C81.1647 38.0409 80.7585 36.6943 79.9526 35.6236C79.5325 35.1596 78.9969 34.831 78.4077 34.6757C78.0432 30.2321 76.0497 17.1851 65.4151 12.0869H65.3232C62.5542 10.8303 59.5803 10.157 56.5678 10.1049H55.6824C52.8034 10.0433 49.9368 10.5201 47.2146 11.5136H47.1424C35.3655 16.0968 33.244 30.0202 32.911 34.6319C32.3202 34.7846 31.7831 35.1133 31.3635 35.5791C30.5193 36.6339 30.0799 37.9855 30.132 39.3666V41.2937C30.109 42.276 30.3598 43.2438 30.8532 44.0763C30.1085 44.9693 29.6963 46.1183 29.6932 47.3092V51.7041C29.6934 52.3499 29.8138 52.9893 30.0475 53.5858C30.2812 54.1824 30.6237 54.7244 31.0554 55.1809C31.4871 55.6374 31.9996 55.9994 32.5635 56.2464C33.1275 56.4933 33.7319 56.6204 34.3422 56.6202C34.8867 56.6198 35.4265 56.515 35.9357 56.3109V59.0636C35.9406 61.9757 36.5945 64.8455 37.8441 67.4402C39.0937 70.0348 40.904 72.2811 43.1279 73.9968V77.6536C37.6861 79.1537 32.3288 80.9781 27.0817 83.118H27.0121C24.6877 84.0406 22.4697 85.2389 20.4005 86.6901C14.6251 91.1427 13.0835 103.418 13.0185 103.907L10.1016 127.25L13.1525 127.669L16.0688 104.325C16.4596 101.16 18.304 92.2935 22.1707 89.2614C23.3993 88.3957 24.7036 87.6566 26.0656 87.0542V101.037C23.818 101.912 20.9825 104.358 20.9825 109.521V127.498C20.9825 127.925 21.143 128.335 21.4288 128.638C21.7146 128.94 22.1022 129.11 22.5063 129.11H88.7691C88.9691 129.11 89.167 129.068 89.3517 128.987C89.5364 128.906 89.7042 128.787 89.8455 128.637C89.9867 128.488 90.0987 128.31 90.1751 128.114C90.2514 127.919 90.2905 127.709 90.2903 127.498V109.551C90.2903 104.387 87.437 101.944 85.2078 101.073V87.0904C86.5346 87.7089 87.7931 88.4636 88.9812 89.3399ZM78.5076 47.2953V51.6957C78.474 52.142 78.2744 52.5559 77.9526 52.8465C77.6308 53.1371 77.2131 53.2806 76.7913 53.2455C76.4133 53.2123 76.0587 53.0384 75.7905 52.7546C75.5223 52.4709 75.3579 52.0957 75.3266 51.6957V47.2953C75.2941 46.8487 75.4298 46.4066 75.7042 46.0655C75.9786 45.7244 76.3694 45.5119 76.7913 45.4745C77.2131 45.4394 77.6308 45.5829 77.9526 45.8735C78.2744 46.1641 78.474 46.578 78.5076 47.0243C78.5181 47.1139 78.5181 47.2063 78.5076 47.2953ZM57.7664 13.4087C59.622 13.5581 61.4512 13.9841 63.1984 14.6624V22.8309C62.5785 23.7759 61.7714 24.5666 60.8333 25.148C59.8952 25.7294 58.8487 26.0874 57.7664 26.1972V13.4087ZM49.2869 14.2149C51.0551 13.6797 52.8802 13.3831 54.7188 13.3323V26.241C53.6363 26.1313 52.5894 25.773 51.6512 25.1911C50.713 24.6092 49.9061 23.8177 49.2869 22.8719V14.2149ZM35.8963 51.6825C35.8626 52.1287 35.6629 52.5425 35.3411 52.8331C35.0193 53.1236 34.6017 53.2672 34.18 53.2323C33.8014 53.2008 33.446 53.0274 33.1775 52.7433C32.909 52.4592 32.7451 52.0831 32.7153 51.6825V47.2953C32.6819 46.8485 32.8173 46.4059 33.0919 46.0645C33.3665 45.7232 33.7578 45.511 34.18 45.4745C34.4103 45.4558 34.6417 45.4901 34.8583 45.575C35.0748 45.66 35.2715 45.7935 35.4346 45.9666C35.5977 46.1396 35.7234 46.348 35.8031 46.5774C35.8828 46.8068 35.9146 47.0517 35.8963 47.2953V51.6825ZM34.3002 42.3688C34.0112 42.3688 33.7288 42.3987 33.4489 42.4522C33.2111 42.116 33.1012 41.6976 33.1409 41.2798V39.3256C33.121 38.8138 33.2451 38.3074 33.4975 37.8704C33.5276 37.8452 33.5623 37.8269 33.5993 37.8166C33.6364 37.8063 33.6751 37.8042 33.713 37.8106H34.3008C34.7059 37.8099 35.0942 37.6391 35.3804 37.3357C35.6666 37.0324 35.8273 36.6213 35.8273 36.1927C35.8273 35.4408 36.0276 21.1289 46.2287 15.5123V23.2624C46.2287 23.5015 46.28 23.735 46.3772 23.9498C46.4823 24.1749 48.969 29.5441 56.2295 29.5441C63.488 29.5441 65.9846 24.1666 66.0844 23.9498C66.1771 23.735 66.2309 23.5015 66.223 23.2624V16.2886C75.165 22.3263 75.3778 35.4707 75.3778 36.192C75.3775 36.6203 75.5377 37.0313 75.8234 37.3347C76.1091 37.6382 76.4968 37.8093 76.9016 37.8106H77.4921C77.6432 37.8106 77.676 37.8106 77.7049 37.8704C77.9637 38.3179 78.0846 38.8343 78.0616 39.3603V41.2798C78.1033 41.701 77.9862 42.1225 77.7358 42.4529C76.9987 42.2984 76.237 42.3397 75.5187 42.5732C74.8004 42.8067 74.1481 43.225 73.6202 43.7907H37.6027C37.1697 43.3364 36.6557 42.9778 36.0906 42.7356C35.5254 42.4934 34.9204 42.3725 34.3107 42.3799L34.3002 42.3688ZM38.9472 59.0636V47.0187H72.296V59.0636C72.2829 67.5226 65.8 74.3686 57.8078 74.3609H53.415C45.4307 74.3582 38.9577 67.5143 38.9472 59.0636ZM64.9534 75.9649V78.3513L55.6009 91.0044L46.144 78.3513V75.8975C48.4221 77.0166 50.9033 77.5974 53.415 77.5994H57.8078C60.2725 77.5987 62.7086 77.0414 64.9534 75.9649ZM37.3308 82.7546C39.5544 82.0362 41.7914 81.3645 44.0402 80.7399L55.6219 96.2325L67.0723 80.7399C68.3886 81.1068 70.9344 81.815 73.9052 82.7949V101.277H37.2966L37.3308 82.7546ZM87.2439 109.551V125.912H24.0301V109.551C24.0301 104.681 27.4377 103.981 27.8016 103.912C28.1661 103.859 28.4998 103.667 28.7413 103.373C28.9828 103.08 29.1156 102.703 29.1152 102.314V85.7436C30.7908 85.0535 32.5714 84.3995 34.3008 83.8081V102.892C34.3006 103.104 34.3399 103.314 34.4164 103.51C34.493 103.707 34.6054 103.885 34.7472 104.035C34.8889 104.186 35.0573 104.305 35.2426 104.386C35.4279 104.468 35.6266 104.51 35.8273 104.51H75.4776C75.8828 104.509 76.2712 104.338 76.5574 104.035C76.8436 103.732 77.0043 103.32 77.0041 102.892V83.8408L82.1385 85.7443V102.314C82.1385 103.12 82.7053 103.81 83.4593 103.913C83.6163 103.935 87.2439 104.511 87.2439 109.551V109.551Z" fill="url(#paint0_linear_2968_8415)"/>
<path d="M27.5625 107.518H35.7958V110.411H27.5625V107.518ZM75.431 107.518H83.6695V110.411H75.431V107.518Z" fill="url(#paint1_linear_2968_8415)"/>
</g>
<defs>
<filter id="filter0_d_2968_8415" x="0.00156212" y="-0.000391006" width="111.2" height="139.21" filterUnits="userSpaceOnUse" color-interpolation-filters="sRGB">
<feFlood flood-opacity="0" result="BackgroundImageFix"/>
<feColorMatrix in="SourceAlpha" type="matrix" values="0 0 0 0 0 0 0 0 0 0 0 0 0 0 0 0 0 0 127 0" result="hardAlpha"/>
<feOffset/>
<feGaussianBlur stdDeviation="5.05"/>
<feComposite in2="hardAlpha" operator="out"/>
<feColorMatrix type="matrix" values="0 0 0 0 0 0 0 0 0 0.741176 0 0 0 0 0.976471 0 0 0 0.5 0"/>
<feBlend mode="normal" in2="BackgroundImageFix" result="effect1_dropShadow_2968_8415"/>
<feBlend mode="normal" in="SourceGraphic" in2="effect1_dropShadow_2968_8415" result="shape"/>
</filter>
<linearGradient id="paint0_linear_2968_8415" x1="55.602" y1="129.117" x2="55.602" y2="12.3687" gradientUnits="userSpaceOnUse">
<stop stop-color="#00C2FF"/>
<stop offset="1" stop-color="#0074A2"/>
</linearGradient>
<linearGradient id="paint1_linear_2968_8415" x1="55.6163" y1="110.412" x2="55.6163" y2="107.573" gradientUnits="userSpaceOnUse">
<stop stop-color="#00C2FF"/>
<stop offset="1" stop-color="#0074A2"/>
</linearGradient>
</defs>
</svg>
