<svg width="121" height="132" viewBox="0 0 121 132" fill="none" xmlns="http://www.w3.org/2000/svg">
<g filter="url(#filter0_d_2968_8419)">
<mask id="mask0_2968_8419" style="mask-type:luminance" maskUnits="userSpaceOnUse" x="5" y="7" width="111" height="118">
<path d="M5.25781 7.66875H115.258V124.055H5.25781V7.66875Z" fill="white"/>
<path fill-rule="evenodd" clip-rule="evenodd" d="M115.258 7.66875H5.25781V124.055H115.258V7.66875ZM111.258 119.822H9.25781V11.901H111.258V119.822Z" fill="white"/>
</mask>
<g mask="url(#mask0_2968_8419)">
<path fill-rule="evenodd" clip-rule="evenodd" d="M49.9455 120.385C50.2701 121.14 50.982 121.625 51.7662 121.625H68.7486C69.5328 121.625 70.2447 121.14 70.5692 120.385L76.1367 107.427L86.3391 101.195L99.7284 102.572C100.509 102.653 101.262 102.243 101.654 101.524L110.145 85.9633C110.537 85.2447 110.496 84.3499 110.04 83.6748L102.218 72.0947V59.6301L110.04 48.0499C110.496 47.3748 110.537 46.4801 110.145 45.7614L101.654 30.2005C101.262 29.4819 100.509 29.0721 99.7284 29.1524L86.3391 30.5295L76.1367 24.2973L70.5692 11.3399C70.2447 10.5845 69.5328 10.0995 68.7486 10.0995H51.7662C50.982 10.0995 50.2701 10.5845 49.9455 11.3399L44.3781 24.2973L34.1757 30.5295L20.7863 29.1524C20.0058 29.0721 19.2529 29.4819 18.8608 30.2005L10.3695 45.7614C9.97739 46.48 10.0184 47.3748 10.4744 48.0499L18.2964 59.63V72.0947L10.4744 83.6748C10.0184 84.3499 9.97739 85.2447 10.3695 85.9633L18.8608 101.524C19.2529 102.243 20.0058 102.653 20.7864 102.572L34.1757 101.195L44.3781 107.427L49.9455 120.385ZM53.054 117.393L47.7541 105.058C47.5815 104.656 47.2946 104.322 46.9334 104.101L35.6204 97.1905C35.2592 96.9699 34.8419 96.8743 34.4269 96.917L21.681 98.2281L14.4775 85.0271L21.9235 74.0035C22.166 73.6445 22.2964 73.2143 22.2964 72.7731V58.9516C22.2964 58.5104 22.166 58.0802 21.9235 57.7212L14.4775 46.6976L21.681 33.4966L34.4269 34.8075C34.842 34.8502 35.2593 34.7546 35.6204 34.534L46.9334 27.6233C47.2946 27.4027 47.5815 27.0682 47.7541 26.6665L53.054 14.3317H67.4608L72.7607 26.6665C72.9333 27.0682 73.2202 27.4027 73.5814 27.6233L84.8944 34.534C85.2555 34.7546 85.6728 34.8502 86.0879 34.8075L98.8338 33.4966L106.037 46.6976L98.5911 57.7212C98.3486 58.0802 98.2182 58.5104 98.2182 58.9516V72.7731C98.2182 73.2144 98.3486 73.6446 98.5911 74.0035L106.037 85.0271L98.8338 98.2281L86.0879 96.917C85.6728 96.8743 85.2555 96.9699 84.8944 97.1905L73.5814 104.101C73.2202 104.322 72.9333 104.656 72.7607 105.058L67.4608 117.393H53.054Z" fill="url(#paint0_linear_2968_8419)"/>
<path fill-rule="evenodd" clip-rule="evenodd" d="M28.9245 100.488C29.4768 101.501 30.7 101.847 31.6566 101.263L47.6041 91.5213C55.6143 95.9335 65.5257 96.0599 73.9331 90.924C84.2492 84.6222 89.212 72.2878 87.1528 60.5707C87.0341 59.8954 86.613 59.323 86.0233 59.0356C85.4336 58.7482 84.7488 58.7815 84.1865 59.125L65.2147 70.7143L58.7643 58.8932L77.7361 47.3038C78.2983 46.9603 78.668 46.3495 78.7276 45.6654C78.7872 44.9814 78.5293 44.3093 78.0358 43.8629C69.4748 36.1179 56.8977 34.4977 46.5815 40.7994L47.5815 42.632L46.5815 40.7994C38.1742 45.9353 33.3219 55.0803 32.9283 64.6262L16.9808 74.3681C16.0242 74.9525 15.6965 76.2467 16.2488 77.2588C16.8011 78.2709 18.0242 78.6177 18.9808 78.0333L35.9023 67.6964C36.5206 67.3187 36.9017 66.6209 36.9023 65.8656C36.9093 57.3278 41.0987 49.0357 48.5816 44.4646C56.4943 39.631 65.9728 40.2542 73.1205 45.2364L55.0322 56.286C54.0756 56.8704 53.7479 58.1646 54.3002 59.1767L62.7506 74.6631C63.0158 75.1491 63.4527 75.5038 63.965 75.649C64.4774 75.7943 65.0233 75.7182 65.4827 75.4376L83.571 64.3879C84.0753 73.4284 79.8459 82.4251 71.9331 87.2588L72.9331 89.0914L71.9331 87.2588C64.4502 91.8299 55.5684 91.5227 48.5766 87.2601C47.958 86.883 47.1964 86.8834 46.5781 87.2611L29.6566 97.5978C28.7 98.1822 28.3722 99.4763 28.9245 100.488Z" fill="url(#paint1_linear_2968_8419)"/>
</g>
</g>
<defs>
<filter id="filter0_d_2968_8419" x="0.00156212" y="-0.000391006" width="120.513" height="131.725" filterUnits="userSpaceOnUse" color-interpolation-filters="sRGB">
<feFlood flood-opacity="0" result="BackgroundImageFix"/>
<feColorMatrix in="SourceAlpha" type="matrix" values="0 0 0 0 0 0 0 0 0 0 0 0 0 0 0 0 0 0 127 0" result="hardAlpha"/>
<feOffset/>
<feGaussianBlur stdDeviation="5.05"/>
<feComposite in2="hardAlpha" operator="out"/>
<feColorMatrix type="matrix" values="0 0 0 0 0 0 0 0 0 0.741176 0 0 0 0 0.976471 0 0 0 0.5 0"/>
<feBlend mode="normal" in2="BackgroundImageFix" result="effect1_dropShadow_2968_8419"/>
<feBlend mode="normal" in="SourceGraphic" in2="effect1_dropShadow_2968_8419" result="shape"/>
</filter>
<linearGradient id="paint0_linear_2968_8419" x1="60.2579" y1="10.0926" x2="60.2579" y2="119.499" gradientUnits="userSpaceOnUse">
<stop stop-color="#00C2FF"/>
<stop offset="1" stop-color="#0074A2"/>
</linearGradient>
<linearGradient id="paint1_linear_2968_8419" x1="51.7961" y1="36.9143" x2="51.7961" y2="100.315" gradientUnits="userSpaceOnUse">
<stop stop-color="#00C2FF"/>
<stop offset="1" stop-color="#0074A2"/>
</linearGradient>
</defs>
</svg>
