<svg width="121" height="93" viewBox="0 0 121 93" fill="none" xmlns="http://www.w3.org/2000/svg">
<g filter="url(#filter0_d_2968_8418)">
<path fill-rule="evenodd" clip-rule="evenodd" d="M27.6797 12.2157C27.6797 11.047 28.5752 10.0996 29.6797 10.0996H45.3047C46.4093 10.0996 47.3047 11.047 47.3047 12.2157C47.3047 13.3678 46.4345 14.3049 45.3516 14.3313V18.3656H59.3676C65.7053 18.3656 71.3622 21.5904 74.9457 26.5664V16.3488C74.9457 15.1801 75.8411 14.2327 76.9457 14.2327H92.5707C97.3477 14.2327 101.35 17.883 102.212 22.6803C106.746 23.5919 110.196 27.8266 110.196 32.8808V68.0115C110.196 69.1802 109.3 70.1277 108.196 70.1277H102.197C102.319 70.7803 102.383 71.4547 102.383 72.1446C102.383 77.866 97.978 82.5267 92.5705 82.5267C87.163 82.5267 82.758 77.866 82.758 72.1446C82.758 71.4547 82.8221 70.7803 82.9442 70.1277H52.978C53.1001 70.7803 53.1641 71.4547 53.1641 72.1446C53.1641 77.8661 48.7589 82.5267 43.3514 82.5267C40.1688 82.5267 37.3334 80.9121 35.5391 78.417C33.7446 80.9121 30.9091 82.5267 27.7264 82.5267C22.3191 82.5267 17.9141 77.8659 17.9141 72.1446C17.9141 71.4547 17.9781 70.7803 18.1002 70.1277H12.1016C10.997 70.1277 10.1016 69.1802 10.1016 68.0115V57.679C10.1016 56.5103 10.997 55.5629 12.1016 55.5629H17.8524C13.1494 51.7713 10.1016 45.786 10.1016 39.0804C10.1016 27.6989 18.8816 18.3926 29.6329 18.3657V14.3313C28.5499 14.3049 27.6797 13.3678 27.6797 12.2157ZM33.6329 14.3318V18.3656H41.3516V14.3318H33.6329ZM29.6909 55.5629H59.3564C59.3601 55.5629 59.3638 55.5629 59.3676 55.5629C67.931 55.5629 74.9457 48.1409 74.9457 39.0804C74.9457 30.0198 67.931 22.5979 59.3676 22.5979H29.6797C21.1163 22.5979 14.1016 30.0198 14.1016 39.0804C14.1016 48.1409 21.1163 55.5629 29.6797 55.5629C29.6834 55.5629 29.6871 55.5629 29.6909 55.5629ZM74.9457 51.5943C73.8698 53.0883 72.6069 54.4245 71.1949 55.5629H74.9457V51.5943ZM78.9457 55.5629H106.196V49.4625H86.7112C85.6066 49.4625 84.7112 48.5151 84.7112 47.3464V34.9473C84.7112 33.7787 85.6066 32.8312 86.7112 32.8312H106.196C106.17 29.4761 103.56 26.7309 100.383 26.7309H78.9457V55.5629ZM78.9457 22.4987H98.0253C97.2039 20.1526 95.0615 18.4649 92.5707 18.4649H78.9457V22.4987ZM106.196 37.0635H88.7112V45.2303H106.196V37.0635ZM106.196 59.7951H14.1016V65.8954H19.8973C21.6907 63.3871 24.5339 61.7624 27.7264 61.7624C30.9091 61.7624 33.7446 63.377 35.5391 65.8721C37.3334 63.377 40.1688 61.7624 43.3514 61.7624C46.544 61.7624 49.3873 63.387 51.1809 65.8954H84.7412C86.5347 63.3871 89.3779 61.7624 92.5705 61.7624C95.7632 61.7624 98.6063 63.3871 100.4 65.8954H106.196V59.7951ZM37.5391 72.1446C37.5391 75.5286 40.1533 78.2945 43.3514 78.2945C46.5499 78.2945 49.1641 75.5285 49.1641 72.1446C49.1641 68.7606 46.5499 65.9946 43.3514 65.9946C40.1533 65.9946 37.5391 68.7605 37.5391 72.1446ZM33.5391 72.1446C33.5391 68.7606 30.9248 65.9946 27.7264 65.9946C24.5283 65.9946 21.9141 68.7605 21.9141 72.1446C21.9141 75.5286 24.5283 78.2945 27.7264 78.2945C30.9248 78.2945 33.5391 75.5285 33.5391 72.1446ZM42.8891 29.6664C43.2376 29.4571 43.827 29.1551 44.5235 29.1551C45.22 29.1551 45.8094 29.4571 46.1579 29.6664C46.561 29.9085 46.9569 30.2229 47.3262 30.5598C48.069 31.2376 48.8553 32.1456 49.5726 33.1628C50.9483 35.1136 52.3829 37.9135 52.3829 40.6408C52.3829 45.1462 48.8743 49.0187 44.5235 49.0058C40.1727 49.0187 36.6641 45.1462 36.6641 40.6408C36.6641 37.9135 38.0987 35.1136 39.4744 33.1628C40.1917 32.1456 40.978 31.2376 41.7209 30.5598C42.0901 30.2229 42.4861 29.9085 42.8891 29.6664ZM42.6804 35.6937C41.4707 37.4091 40.6641 39.294 40.6641 40.6408C40.6641 42.8804 42.4472 44.7819 44.516 44.7736H44.5311C46.5998 44.7819 48.3829 42.8804 48.3829 40.6408C48.3829 39.294 47.5763 37.4091 46.3667 35.6937C45.7912 34.8777 45.1988 34.2073 44.7139 33.7649C44.6453 33.7023 44.5818 33.6469 44.5235 33.5983C44.4653 33.6469 44.4017 33.7023 44.3331 33.7649C43.8482 34.2073 43.2558 34.8777 42.6804 35.6937ZM44.928 33.3128C44.9278 33.3134 44.9193 33.318 44.9031 33.3245C44.9201 33.3154 44.9282 33.3122 44.928 33.3128ZM44.1439 33.3245C44.1277 33.318 44.1193 33.3135 44.119 33.3128C44.1188 33.3122 44.1269 33.3154 44.1439 33.3245ZM92.5705 65.9946C89.3722 65.9946 86.758 68.7605 86.758 72.1446C86.758 75.5286 89.3722 78.2945 92.5705 78.2945C95.7689 78.2945 98.383 75.5286 98.383 72.1446C98.383 68.7605 95.7689 65.9946 92.5705 65.9946ZM25.7266 72.1446C25.7266 70.9759 26.622 70.0284 27.7266 70.0284H27.7279C28.8325 70.0284 29.7279 70.9759 29.7279 72.1446C29.7279 73.3132 28.8325 74.2607 27.7279 74.2607H27.7266C26.622 74.2607 25.7266 73.3132 25.7266 72.1446ZM41.3516 72.1446C41.3516 70.9759 42.247 70.0284 43.3516 70.0284H43.3531C44.4577 70.0284 45.3531 70.9759 45.3531 72.1446C45.3531 73.3132 44.4577 74.2607 43.3531 74.2607H43.3516C42.247 74.2607 41.3516 73.3132 41.3516 72.1446ZM90.5703 72.1446C90.5703 70.9759 91.4657 70.0284 92.5703 70.0284H92.5719C93.6764 70.0284 94.5719 70.9759 94.5719 72.1446C94.5719 73.3132 93.6764 74.2607 92.5719 74.2607H92.5703C91.4657 74.2607 90.5703 73.3132 90.5703 72.1446Z" fill="url(#paint0_linear_2968_8418)"/>
</g>
<defs>
<filter id="filter0_d_2968_8418" x="0.00156212" y="-0.000391006" width="120.294" height="92.6277" filterUnits="userSpaceOnUse" color-interpolation-filters="sRGB">
<feFlood flood-opacity="0" result="BackgroundImageFix"/>
<feColorMatrix in="SourceAlpha" type="matrix" values="0 0 0 0 0 0 0 0 0 0 0 0 0 0 0 0 0 0 127 0" result="hardAlpha"/>
<feOffset/>
<feGaussianBlur stdDeviation="5.05"/>
<feComposite in2="hardAlpha" operator="out"/>
<feColorMatrix type="matrix" values="0 0 0 0 0 0 0 0 0 0.741176 0 0 0 0 0.976471 0 0 0 0.5 0"/>
<feBlend mode="normal" in2="BackgroundImageFix" result="effect1_dropShadow_2968_8418"/>
<feBlend mode="normal" in="SourceGraphic" in2="effect1_dropShadow_2968_8418" result="shape"/>
</filter>
<linearGradient id="paint0_linear_2968_8418" x1="60.1491" y1="82.5312" x2="60.1491" y2="11.4805" gradientUnits="userSpaceOnUse">
<stop stop-color="#00C2FF"/>
<stop offset="1" stop-color="#0074A2"/>
</linearGradient>
</defs>
</svg>
