<svg width="92" height="59" viewBox="0 0 92 59" fill="none" xmlns="http://www.w3.org/2000/svg">
<path d="M35.2157 34.2358C30.6573 39.7902 30.8815 48.4085 35.7014 53.7257C38.3916 56.7105 41.9973 58.193 45.5842 58.193C49.0965 58.193 52.59 56.7698 55.2615 53.9431C56.4759 52.6583 57.4287 51.1758 58.0825 49.6143L75.7371 13.4018C76.2041 12.3739 75.1953 11.3065 74.2238 11.8007L39.9983 30.4802C38.2235 31.3103 36.5982 32.5754 35.2157 34.2358ZM41.4555 39.3356C42.5951 38.1298 44.0897 37.5171 45.5842 37.5171C47.0788 37.5171 48.5734 38.1298 49.7317 39.3356C52.0109 41.7471 52.0109 45.6807 49.7317 48.0922C48.5921 49.298 47.0975 49.9107 45.5842 49.9107C44.0897 49.9107 42.5951 49.298 41.4555 48.0922C39.1576 45.6609 39.1576 41.7471 41.4555 39.3356ZM82.2385 48.2899C82.2385 41.4506 80.5384 34.73 77.3064 28.8593C76.0547 26.5664 76.7833 23.6409 78.9504 22.3165C81.1175 20.9922 83.8825 21.7631 85.1342 24.056C89.1508 31.3894 91.2806 39.7705 91.2806 48.2899C91.2806 50.9386 89.2629 53.0734 86.7595 53.0734C84.2748 53.0734 82.2385 50.9386 82.2385 48.2899ZM0 48.2899C0 21.6642 20.4755 0 45.6403 0C51.4878 0 57.1858 1.14646 62.5662 3.43939C64.8828 4.42773 66.0037 7.19505 65.0883 9.64612C64.1542 12.0972 61.5387 13.2832 59.2221 12.3146C54.9066 10.4961 50.3295 9.56705 45.6403 9.56705C25.4637 9.56705 9.04212 26.9419 9.04212 48.2899C9.04212 50.9386 7.02446 53.0734 4.52106 53.0734C2.01766 53.0734 0 50.9386 0 48.2899Z" fill="white"/>
</svg>
