<svg width="35" height="14" viewBox="0 0 35 14" fill="none" xmlns="http://www.w3.org/2000/svg">
<path opacity="0.5" d="M2.88188 7.84756V10.0796H7.92188V12.8516H0.00187504V0.251562H7.83188V3.02356H2.88188V5.11156H7.38188V7.84756H2.88188ZM16.5668 7.09156V0.251562H19.4468V12.8516H17.2868L12.4268 6.01156V12.8516H9.5468V0.251562H11.7068L16.5668 7.09156ZM27.7614 5.83156H34.0794V6.91156C34.0794 8.78356 33.4914 10.2896 32.3154 11.4296C31.1514 12.5456 29.6694 13.1036 27.8694 13.1036C25.9134 13.1036 24.2874 12.4736 22.9914 11.2136C21.7074 9.95356 21.0654 8.40556 21.0654 6.56956C21.0654 4.73356 21.7014 3.17956 22.9734 1.90756C24.2454 0.635562 25.8114 -0.000438333 27.6714 -0.000438333C28.8354 -0.000438333 29.9034 0.263562 30.8754 0.791562C31.8594 1.30756 32.6274 2.00356 33.1794 2.87956L30.7314 4.28356C30.4434 3.83956 30.0234 3.48556 29.4714 3.22156C28.9314 2.94556 28.3254 2.80756 27.6534 2.80756C26.5854 2.80756 25.6974 3.16156 24.9894 3.86956C24.2934 4.56556 23.9454 5.47156 23.9454 6.58756C23.9454 7.66756 24.3054 8.56156 25.0254 9.26956C25.7454 9.95356 26.7054 10.2956 27.9054 10.2956C29.5614 10.2956 30.6354 9.64756 31.1274 8.35156H27.7614V5.83156Z" fill="white"/>
</svg>
