<svg width="30" height="29" viewBox="0 0 30 29" fill="none" xmlns="http://www.w3.org/2000/svg">
<path d="M13.1316 17.2165L18.011 14.5L13.1316 11.7835V17.2165Z" fill="#858688"/>
<path d="M15 0C6.71701 0 0 6.49311 0 14.5C0 22.5069 6.71701 29 15 29C23.283 29 30 22.5069 30 14.5C30 6.49311 23.283 0 15 0ZM24.3727 14.5148C24.3727 14.5148 24.3727 17.4555 23.9868 18.8735C23.7705 19.6497 23.1374 20.2617 22.3345 20.4705C20.8677 20.8438 15 20.8438 15 20.8438C15 20.8438 9.14772 20.8438 7.66547 20.4556C6.86256 20.2468 6.22945 19.6346 6.01318 18.8584C5.62705 17.4555 5.62705 14.5 5.62705 14.5C5.62705 14.5 5.62705 11.5596 6.01318 10.1415C6.22928 9.36541 6.87791 8.73835 7.66553 8.52951C9.1323 8.15625 15 8.15625 15 8.15625C15 8.15625 20.8676 8.15625 22.3345 8.54435C23.1374 8.75319 23.7705 9.36541 23.9868 10.1416C24.3883 11.5596 24.3727 14.5148 24.3727 14.5148L24.3727 14.5148Z" fill="#858688"/>
</svg>
