<svg width="29" height="29" viewBox="0 0 29 29" fill="none" xmlns="http://www.w3.org/2000/svg">
<path d="M14.5 0C6.49187 0 0 6.49187 0 14.5C0 22.5081 6.49187 29 14.5 29C22.5081 29 29 22.5081 29 14.5C29 6.49187 22.5081 0 14.5 0ZM22.2237 19.4221H20.3837C20.1844 19.4223 19.9877 19.3776 19.808 19.2913C19.6284 19.205 19.4705 19.0793 19.3462 18.9236C18.7944 18.2309 17.7073 17.0025 16.566 16.4749C16.4999 16.4439 16.427 16.4302 16.3542 16.4348C16.2813 16.4395 16.2108 16.4624 16.1492 16.5015C16.0876 16.5407 16.0368 16.5947 16.0016 16.6586C15.9664 16.7225 15.9478 16.7943 15.9477 16.8673V18.687C15.9477 18.7836 15.9287 18.8791 15.8918 18.9683C15.8549 19.0575 15.8007 19.1385 15.7325 19.2068C15.6643 19.275 15.5832 19.3292 15.4941 19.3661C15.4049 19.4031 15.3093 19.4221 15.2128 19.4221H14.362C13.2556 19.4221 10.873 18.7486 8.97442 15.9829C7.35677 13.6267 6.63568 11.8006 6.21518 10.32C6.19073 10.2332 6.18673 10.1419 6.20348 10.0534C6.22024 9.96477 6.25729 9.88128 6.31175 9.80942C6.3662 9.73757 6.43656 9.67931 6.51731 9.63923C6.59807 9.59914 6.68701 9.57831 6.77716 9.57838H8.63849C8.82419 9.57822 9.00498 9.63801 9.15397 9.74885C9.30297 9.85968 9.4122 10.0157 9.46544 10.1936C9.81157 11.3512 10.7081 13.8486 12.2928 15.0922C12.3411 15.1303 12.3992 15.154 12.4603 15.1606C12.5215 15.1673 12.5833 15.1566 12.6387 15.1297C12.694 15.1029 12.7407 15.0611 12.7734 15.0089C12.8061 14.9568 12.8235 14.8966 12.8236 14.835V11.92C12.8236 11.3439 12.5739 10.7675 12.1842 10.317C12.128 10.2524 12.0917 10.173 12.0794 10.0883C12.0671 10.0036 12.0794 9.91715 12.1149 9.83926C12.1504 9.76137 12.2076 9.69533 12.2796 9.64903C12.3516 9.60272 12.4354 9.5781 12.521 9.5781H15.3907C15.5385 9.5781 15.6802 9.6368 15.7847 9.74129C15.8892 9.84578 15.9479 9.9875 15.948 10.1353V14.0619C15.948 14.1187 15.9636 14.1745 15.9932 14.223C16.0228 14.2715 16.0651 14.311 16.1157 14.3371C16.1662 14.3631 16.2229 14.3748 16.2796 14.3708C16.3363 14.3668 16.3908 14.3472 16.4371 14.3143C16.9639 13.9393 17.415 13.3854 17.83 12.7627C18.3522 11.9795 18.9895 10.6848 19.3091 10.0129C19.371 9.88271 19.4685 9.77275 19.5904 9.69577C19.7122 9.61878 19.8534 9.57792 19.9975 9.57793H22.0275C22.1123 9.57789 22.1957 9.59951 22.2698 9.64072C22.3438 9.68193 22.4061 9.74138 22.4508 9.81342C22.4955 9.88547 22.521 9.96773 22.525 10.0524C22.5289 10.1371 22.5112 10.2214 22.4735 10.2973C21.9612 11.3247 20.9635 13.2096 20.0246 14.3155C19.8902 14.4745 19.8244 14.6804 19.8417 14.8879C19.8589 15.0954 19.9578 15.2875 20.1165 15.4222C20.7285 15.9451 21.684 16.9119 22.714 18.5221C22.7708 18.6102 22.8029 18.7121 22.8067 18.8169C22.8106 18.9217 22.7862 19.0256 22.736 19.1176C22.6858 19.2097 22.6118 19.2866 22.5216 19.3402C22.4315 19.3937 22.3286 19.422 22.2237 19.4221Z" fill="#858688"/>
</svg>
