<svg width="29" height="29" viewBox="0 0 29 29" fill="none" xmlns="http://www.w3.org/2000/svg">
<path fill-rule="evenodd" clip-rule="evenodd" d="M14.5 0C6.49215 0 0 6.49215 0 14.5C0 22.5079 6.49215 29 14.5 29C22.5079 29 29 22.5079 29 14.5C29 6.49215 22.5079 0 14.5 0ZM21.221 9.86113C21.0029 12.1539 20.0587 17.7178 19.5784 20.2858C19.3751 21.3728 18.9746 21.737 18.5872 21.7727C17.7455 21.8503 17.106 21.2159 16.2904 20.6812C15.0143 19.8446 14.2933 19.3241 13.0545 18.5079C11.6227 17.5643 12.551 17.046 13.3666 16.1987C13.5802 15.9766 17.2901 12.602 17.3621 12.2961C17.3711 12.2576 17.3796 12.1149 17.2946 12.0395C17.2097 11.9642 17.0845 11.9903 16.9945 12.0106C16.8664 12.0395 14.8274 13.387 10.8784 16.0531C10.2995 16.4507 9.77561 16.6438 9.30549 16.6342C8.78779 16.6229 7.79205 16.3414 7.05176 16.1007C6.14381 15.8056 5.42221 15.6492 5.48508 15.148C5.51736 14.8869 5.87703 14.6201 6.56352 14.3471C10.7906 12.5051 13.609 11.2913 15.0194 10.7045C19.0465 9.02971 19.8831 8.73852 20.4285 8.72889C21.1117 8.71682 21.2766 9.28074 21.221 9.86113Z" fill="#858688"/>
</svg>
