<svg width="238" height="73" viewBox="0 0 238 73" fill="none" xmlns="http://www.w3.org/2000/svg">
<path d="M33.6984 26.16C33.9005 25.5655 34.1161 24.9747 34.3452 24.3877C34.6737 23.5435 34.8893 22.9558 34.992 22.6248C36.7436 16.9849 36.0368 10.8334 33.4844 5.5493C33.8386 4.3471 34.2175 3.16274 34.6212 1.99621C34.8433 1.3535 35.0352 0.693258 35.1966 0.0154959C35.1967 0.0112635 35.1985 0.00725387 35.2016 0.00434912C35.2047 0.00144436 35.2088 -0.000117574 35.213 6.9089e-06C35.2173 0.000131392 35.2213 0.0019321 35.2242 0.0050129C35.2271 0.0080937 35.2287 0.0122022 35.2285 0.0164347C36.2981 5.55806 37.5441 11.0624 38.9665 16.5296C39.1856 17.3694 39.3345 17.9774 39.4134 18.3535C40.4695 23.3645 40.323 29.0907 37.8617 33.7111C37.3022 34.7625 36.4564 35.9397 35.3252 36.4259C35.3164 36.4297 35.3067 36.431 35.2972 36.4298C35.2877 36.4286 35.2787 36.4249 35.2711 36.4191C35.2635 36.4132 35.2575 36.4055 35.2538 36.3967C35.2502 36.3878 35.2489 36.3782 35.2501 36.3687C35.7261 32.962 34.9328 29.3057 33.7923 26.0971C33.79 26.0914 33.7855 26.0869 33.7799 26.0844C33.7743 26.082 33.768 26.0818 33.7622 26.084C33.7397 26.0927 33.7184 26.1181 33.6984 26.16Z" fill="#4C9BBB" fill-opacity="0.78"/>
<path d="M33.4863 5.54973C36.0387 10.8338 36.7455 16.9853 34.9938 22.6252C34.8912 22.9563 34.6756 23.5439 34.3471 24.3881C34.118 24.9751 33.9024 25.5659 33.7003 26.1604C33.1414 27.7262 32.7503 29.324 32.5269 30.9536C32.311 32.526 32.4433 34.4053 33.5698 35.59C33.9049 35.9429 34.4006 36.2799 34.8239 36.5578C35.0067 36.678 34.9888 36.7308 34.7704 36.7164C29.3521 36.3635 27.3911 30.8757 27.2052 26.2853C27.0738 23.0292 27.5413 19.8534 28.6077 16.7581C29.5771 13.9438 30.5502 11.1298 31.5271 8.31616C31.8857 7.28418 32.2212 6.2447 32.5334 5.1977C32.6226 4.89543 32.6799 4.5819 32.7024 4.29277C32.7099 4.19389 32.7378 4.18795 32.786 4.27494L33.4863 5.54973Z" fill="#86D0EF"/>
<path d="M24.2035 44.4605C23.8796 43.4458 23.0329 43.4091 22.1289 43.4345C21.3817 43.4561 20.7574 43.718 20.5453 44.4596C20.4683 44.7293 20.4717 45.0895 20.5556 45.5401C20.7953 46.8274 21.3582 47.966 22.2444 48.9561C22.419 49.1504 22.51 49.5231 22.51 49.816C22.5107 51.6784 22.5119 53.5405 22.5138 55.4023C22.5138 55.8529 22.4687 56.1793 22.3786 56.3814C22.0726 57.0667 21.1461 57.3464 20.4758 57.0047C20.3532 56.9422 20.1138 56.7651 19.7577 56.4734C17.8896 54.9424 16.3257 53.0574 15.1992 50.9199C13.1575 47.0439 12.0864 42.4667 12.4262 38.0603C12.4854 37.2877 12.5961 36.7348 13.2767 36.4194C13.4569 36.3361 13.7167 36.2945 14.0559 36.2945C18.3252 36.2958 22.5939 36.2958 26.862 36.2945C27.2863 36.2945 27.5842 36.3274 27.7557 36.3931C28.0711 36.5132 28.3004 36.7342 28.4437 37.0558C30.1253 40.8326 31.0662 44.8382 31.2665 49.0725C31.2865 49.5037 31.299 50.1292 31.304 50.949C31.3466 57.95 31.3594 64.9514 31.3425 71.9531C31.3416 72.3398 31.0956 73.0439 30.585 72.9979C23.8268 72.3871 17.8273 70.0018 12.5867 65.8419C9.49457 63.3881 6.7028 60.2452 4.67514 56.7851C0.673658 49.9599 -0.759155 42.6009 0.376706 34.7081C0.893632 31.1165 2.02042 27.6538 3.75706 24.3201C7.32986 17.4618 13.1781 12.1711 20.2336 9.05075C20.5296 8.91996 20.775 8.86019 20.9696 8.87146C21.684 8.9137 21.8623 9.4422 21.9459 10.1003C22.1167 11.4439 22.2894 12.7872 22.464 14.1302C22.5366 14.6884 22.5466 15.0768 22.4941 15.2952C22.3914 15.7232 22.1289 16.0462 21.7065 16.2639C15.7675 19.3305 11.5197 23.954 8.96325 30.1346C8.54364 31.1484 8.25451 32.1435 7.97102 33.2699C6.74754 38.1313 6.88772 42.9439 8.39156 47.7076C10.5995 54.702 15.7953 60.6883 22.3645 63.7824C22.9972 64.0799 23.843 63.7007 24.1237 63.0624C24.2001 62.8878 24.2382 62.598 24.2382 62.1931C24.2382 56.3567 24.2382 50.52 24.2382 44.683C24.2382 44.6073 24.2267 44.5331 24.2035 44.4605Z" fill="white"/>
<path d="M56.1366 41.092C55.905 44.3043 55.0968 47.3471 53.7118 50.2202C52.4946 52.746 50.7793 54.8891 48.5657 56.6496C48.2484 56.9024 47.9862 57.0563 47.7791 57.1114C47.152 57.2785 46.401 56.949 46.1476 56.3417C46.0731 56.1639 46.0359 55.8651 46.0359 55.4452C46.0352 53.5001 46.0355 51.5554 46.0368 49.611C46.0368 49.4157 46.2011 49.1003 46.3485 48.9163C47.198 47.8537 47.7256 46.9027 47.9856 45.5031C48.0673 45.0619 48.1217 44.7071 47.9396 44.2987C47.5528 43.4285 46.7446 43.4041 45.9044 43.4379C45.2398 43.4642 44.7198 43.6238 44.4335 44.2236C44.3508 44.3982 44.3095 44.6482 44.3095 44.9737C44.3095 50.7575 44.3092 56.5407 44.3086 62.3232C44.3086 62.6286 44.3483 62.8715 44.4278 63.0517C44.731 63.737 45.5036 64.0758 46.2217 63.751C46.5465 63.6046 46.8654 63.4472 47.1783 63.2789C57.738 57.5977 63.4352 45.628 60.7082 33.8403C60.384 32.4385 60.0686 31.3386 59.7619 30.5407C59.5886 30.0889 59.2816 29.4058 58.841 28.4915C56.3346 23.2815 52.3094 19.1586 47.2036 16.4589C46.7706 16.2298 46.4886 16.0361 46.3578 15.8778C45.9974 15.4441 45.9767 14.9982 46.0499 14.404C46.2321 12.9195 46.4223 11.436 46.6207 9.95347C46.7005 9.35362 46.969 8.8805 47.6082 8.86924C47.7979 8.86611 48.0585 8.93808 48.3902 9.08515C54.2929 11.7054 59.0776 15.6537 62.7443 20.93C69.0385 29.9859 70.2222 41.8777 66.181 52.1183C63.4164 59.1241 58.2543 64.901 51.7912 68.6728C47.6195 71.1079 42.618 72.6952 37.7807 72.9975C37.7511 72.9994 37.7216 72.99 37.6981 72.9712C37.3639 72.7046 37.1965 72.3573 37.1959 71.9292C37.1696 61.254 37.1855 53.9398 37.2437 49.9865C37.3069 45.6871 38.2094 41.4925 39.951 37.4028C40.2993 36.5861 40.6344 36.2942 41.5093 36.2942C45.8738 36.2948 50.2376 36.2954 54.6008 36.2961C55.4119 36.2961 55.9967 36.7908 56.0878 37.6169C56.2089 38.7114 56.2192 39.9505 56.1366 41.092Z" fill="white"/>
<path d="M196.622 31.8103L203.418 31.7652C203.44 31.7652 203.462 31.7587 203.48 31.7465C203.498 31.7343 203.512 31.717 203.521 31.6967C204.419 29.5564 205.313 27.4299 206.204 25.3171C206.598 24.3815 206.866 23.8177 207.009 23.6255C207.716 22.6718 209.133 22.2869 210.253 22.7459C211.408 23.2191 212.113 24.3718 211.971 25.626C211.936 25.9445 211.789 26.4085 211.532 27.0181C210.42 29.6565 209.308 32.2981 208.196 34.9428C208.191 34.9549 208.188 34.968 208.189 34.9811C208.189 34.9941 208.192 35.007 208.198 35.0189C209.378 37.519 210.56 40.0217 211.745 42.5268C212.374 43.857 211.798 45.512 210.499 46.1597C209.378 46.7201 208.036 46.5211 207.18 45.5899C206.977 45.3696 206.748 44.9885 206.491 44.4465C205.366 42.0678 204.247 39.6978 203.134 37.3366C203.124 37.3152 203.108 37.2972 203.088 37.2846C203.068 37.2719 203.046 37.2652 203.022 37.2653H196.616C196.583 37.2653 196.565 37.2825 196.565 37.3169C196.555 39.2657 196.554 41.2117 196.562 43.1548C196.565 43.6649 196.525 44.0582 196.443 44.3348C196.061 45.6303 194.718 46.477 193.36 46.2179C192.02 45.9626 191.097 44.8699 191.098 43.4824C191.1 37.6655 191.1 31.8491 191.099 26.0334C191.099 25.4413 191.143 25.0008 191.231 24.7116C191.983 22.2522 195.672 22.2221 196.438 24.737C196.523 25.0148 196.564 25.4301 196.562 25.9827C196.554 27.9064 196.556 29.8302 196.566 31.754C196.566 31.7915 196.585 31.8103 196.622 31.8103Z" fill="white"/>
<path d="M222.269 41.5111C221.901 42.3847 221.53 43.2681 221.158 44.1611C220.939 44.6855 220.737 45.0588 220.551 45.281C219.127 46.9848 216.461 46.3868 215.763 44.3301C215.495 43.5406 215.67 42.8535 216.016 42.0255C218.375 36.3931 220.734 30.7604 223.092 25.1275C223.369 24.466 223.604 24.0194 223.798 23.7879C224.482 22.9684 225.288 22.8135 226.393 22.8079C227.712 22.8022 228.821 22.713 229.715 23.7569C229.922 23.9991 230.181 24.4891 230.49 25.227C232.875 30.93 235.263 36.6325 237.651 42.3343C238.032 43.2424 237.987 44.101 237.515 44.9102C236.547 46.5699 234.207 46.7248 232.99 45.2735C232.805 45.0532 232.617 44.7181 232.426 44.2681C232.04 43.355 231.658 42.4407 231.28 41.5252C231.27 41.5012 231.253 41.4808 231.232 41.4664C231.211 41.4521 231.186 41.4444 231.16 41.4444L222.369 41.4454C222.321 41.4454 222.288 41.4673 222.269 41.5111ZM224.637 35.8534C224.635 35.8583 224.634 35.8637 224.635 35.869C224.635 35.8743 224.637 35.8794 224.64 35.8838C224.643 35.8882 224.647 35.8919 224.652 35.8944C224.656 35.897 224.662 35.8983 224.667 35.8984H228.874C228.88 35.8983 228.885 35.897 228.889 35.8944C228.894 35.8919 228.898 35.8882 228.901 35.8838C228.904 35.8794 228.906 35.8743 228.906 35.869C228.907 35.8637 228.906 35.8583 228.904 35.8534L226.801 30.8415C226.798 30.8357 226.794 30.8307 226.788 30.8273C226.783 30.8238 226.777 30.8219 226.771 30.8219C226.764 30.8219 226.758 30.8238 226.753 30.8273C226.747 30.8307 226.743 30.8357 226.74 30.8415L224.637 35.8534Z" fill="white"/>
<path d="M86.4562 41.1916C86.4462 41.7723 86.4418 42.3528 86.4431 42.9329C86.4443 43.6119 86.4052 44.0844 86.3257 44.3504C85.9531 45.5876 84.7346 46.3846 83.4316 46.2522C82.3155 46.1387 81.3674 45.3445 81.0651 44.2631C80.9994 44.0284 80.9665 43.6141 80.9665 43.0202C80.9647 37.1901 80.9643 31.3596 80.9656 25.5289C80.9656 24.3846 81.7316 23.3304 82.813 22.9652C83.0796 22.8751 83.4977 22.83 84.0672 22.83C87.5792 22.8307 91.091 22.8304 94.6025 22.8291C95.4217 22.8291 96.0453 22.8654 96.4734 22.938C99.8143 23.5078 102.518 26.1522 103.122 29.4941C103.311 30.5314 103.293 31.9028 103.317 33.0847C103.371 35.8511 102.512 38.7161 99.9561 40.128C99.5424 40.3564 99.0098 40.552 98.3583 40.7147C97.2375 40.9951 96.1264 41.1349 95.0249 41.1343C92.1868 41.1318 89.3487 41.1331 86.5107 41.1381C86.475 41.1381 86.4568 41.1559 86.4562 41.1916ZM97.6383 30.1202C97.3107 29.1458 96.2894 28.2953 95.1892 28.2944C92.291 28.2925 89.4016 28.2919 86.521 28.2925C86.5008 28.2925 86.4815 28.3005 86.4672 28.3148C86.453 28.329 86.445 28.3484 86.445 28.3685V35.5723C86.445 35.5932 86.4532 35.6133 86.4678 35.6281C86.4824 35.6429 86.5022 35.6512 86.5229 35.6512C89.3973 35.6549 92.2782 35.6587 95.1657 35.6625C96.4058 35.6634 97.5989 35.2898 97.7585 33.8629C97.8392 33.1485 97.8045 32.4191 97.7989 31.7001C97.7932 30.9504 97.7397 30.4237 97.6383 30.1202Z" fill="white"/>
<path d="M138.102 30.9998C138.382 31.4241 138.869 31.7959 139.404 31.7968C141.97 31.8012 144.536 31.8031 147.103 31.8025C147.982 31.8025 148.606 31.8294 148.976 31.8832C152.728 32.4267 155.366 35.8568 155.09 39.6333C154.851 42.8888 152.394 45.6327 149.162 46.1716C148.762 46.2379 148.138 46.2711 147.291 46.2711C143.511 46.2692 139.732 46.2692 135.954 46.2711C135.089 46.2717 134.515 46.2288 134.23 46.1425C133.214 45.8355 132.426 44.8573 132.324 43.7862C132.203 42.5077 133.012 41.2902 134.235 40.9259C134.566 40.8271 135.185 40.7782 136.092 40.7795C140 40.7839 143.909 40.7845 147.818 40.7814C148.139 40.7808 148.393 40.741 148.582 40.6622C150.351 39.9243 149.763 37.2978 147.9 37.2874C145.236 37.2718 142.572 37.2652 139.908 37.2677C139.133 37.2677 138.534 37.2264 138.111 37.1438C134.557 36.4454 132.138 33.1608 132.326 29.587C132.496 26.3513 134.889 23.5867 138.085 22.9568C138.516 22.8717 139.133 22.8295 139.936 22.8301C143.859 22.8307 147.783 22.8307 151.706 22.8301C152.317 22.8295 152.763 22.8748 153.044 22.9662C154.129 23.3173 154.888 24.4015 154.89 25.5449C154.891 26.754 154.131 27.8082 152.967 28.1715C152.703 28.2541 152.334 28.295 151.861 28.2944C147.869 28.2919 143.876 28.2919 139.885 28.2944C139.409 28.2944 139.064 28.3379 138.848 28.4249C137.817 28.8398 137.503 30.0893 138.102 30.9998Z" fill="white"/>
<path d="M164.001 31.8017L175.754 31.8036C175.767 31.8036 175.78 31.7984 175.789 31.7893C175.798 31.7801 175.803 31.7677 175.803 31.7548C175.804 29.9023 175.804 28.0549 175.803 26.2125C175.803 25.4866 175.851 24.9731 175.946 24.6721C176.71 22.2558 180.369 22.2455 181.13 24.6993C181.222 24.9959 181.268 25.4762 181.268 26.1402C181.265 31.6969 181.265 37.2535 181.268 42.8102C181.269 43.578 181.221 44.1153 181.125 44.422C180.78 45.5156 179.666 46.3069 178.5 46.2778C177.321 46.2487 176.272 45.4649 175.937 44.3394C175.842 44.0183 175.796 43.4275 175.799 42.567C175.806 40.8173 175.807 39.0759 175.8 37.343C175.8 37.3226 175.792 37.303 175.777 37.2886C175.763 37.2742 175.743 37.266 175.722 37.266L163.998 37.2651C163.987 37.2651 163.977 37.2694 163.969 37.2769C163.962 37.2845 163.957 37.2948 163.957 37.3055C163.954 39.3675 163.945 41.4343 163.933 43.5058C163.926 44.6041 163.478 45.4014 162.588 45.8976C161.104 46.7247 159.121 45.9849 158.612 44.3469C158.53 44.0803 158.489 43.7032 158.489 43.2157C158.495 37.5195 158.495 31.8233 158.488 26.1271C158.488 25.4468 158.534 24.9593 158.627 24.6646C159.39 22.2548 163.053 22.252 163.812 24.6965C163.908 25.0063 163.955 25.5667 163.954 26.3777C163.95 28.1695 163.95 29.9621 163.955 31.7557C163.955 31.7679 163.96 31.7796 163.969 31.7882C163.978 31.7969 163.989 31.8017 164.001 31.8017Z" fill="white"/>
<path d="M123.757 24.3464C124.772 22.2268 128.084 22.4032 128.804 24.6834C128.903 24.9963 128.954 25.5458 128.956 26.3318C128.961 28.9427 128.96 31.554 128.951 34.1655C128.943 36.2927 128.855 38.3654 128.119 40.3846C127.102 43.1717 124.921 44.8811 122.128 45.6452C119.415 46.3881 116.693 46.4231 113.96 45.7504C112.517 45.3955 111.057 44.7365 109.938 43.7734C107.277 41.4829 106.816 38.0838 106.799 34.7644C106.785 31.9295 106.779 29.0945 106.782 26.2595C106.783 25.5136 106.825 24.9995 106.908 24.7172C107.639 22.2324 111.364 22.2455 112.122 24.7388C112.206 25.0148 112.248 25.4056 112.247 25.9113C112.241 28.9208 112.241 31.9304 112.246 34.94C112.247 35.7992 112.315 36.6528 112.45 37.5008C112.77 39.5172 114.07 40.2832 115.934 40.6042C117.359 40.8496 118.791 40.8233 120.228 40.5254C121.748 40.21 122.854 39.4252 123.215 37.85C123.474 36.7207 123.478 35.3652 123.484 34.0303C123.496 31.1422 123.497 28.2537 123.489 25.3649C123.489 25.0602 123.578 24.7207 123.757 24.3464Z" fill="white"/>
<path d="M186.124 43.8108C187.614 43.8108 188.822 42.603 188.822 41.1129C188.822 39.6229 187.614 38.415 186.124 38.415C184.634 38.415 183.426 39.6229 183.426 41.1129C183.426 42.603 184.634 43.8108 186.124 43.8108Z" fill="#21BBEF"/>
<path d="M82.6042 54.9105C82.6054 54.9731 82.6283 54.9822 82.6727 54.9378C83.6884 53.9189 84.7079 52.8985 85.7311 51.8766C85.8375 51.7696 85.9426 51.7054 86.0465 51.6841C86.391 51.6137 86.7393 51.9226 86.6726 52.2615C86.6482 52.386 86.5581 52.5265 86.4023 52.6829C85.6112 53.4752 84.8237 54.2622 84.0395 55.0438C84.0182 55.0651 84.0167 55.088 84.0348 55.1124C84.8396 56.2038 85.6397 57.288 86.4351 58.3651C86.5728 58.5516 86.6489 58.6974 86.6632 58.8025C86.6989 59.0654 86.5215 59.3094 86.2624 59.3695C86.0359 59.4221 85.8381 59.3332 85.6691 59.1029C84.8775 58.0259 84.083 56.9495 83.2857 55.8737C83.2818 55.8684 83.2769 55.8641 83.2712 55.8609C83.2656 55.8577 83.2593 55.8558 83.2529 55.8553C83.2465 55.8547 83.24 55.8556 83.234 55.8578C83.228 55.86 83.2226 55.8635 83.2181 55.868L82.6352 56.4501C82.6224 56.4626 82.6122 56.4775 82.6053 56.4939C82.5983 56.5104 82.5948 56.528 82.5948 56.5458C82.5948 57.2599 82.5957 57.9724 82.5976 58.6833C82.5982 58.9011 82.5726 59.0575 82.5206 59.1527C82.2775 59.5995 81.5547 59.4127 81.5547 58.8307C81.5572 56.6935 81.5575 54.5563 81.5556 52.4192C81.5556 52.1801 81.5775 52.0143 81.6213 51.9216C81.8326 51.4757 82.592 51.6372 82.5892 52.2361C82.5848 53.141 82.5898 54.0325 82.6042 54.9105Z" fill="#777676"/>
<path d="M92.4398 56.7891L90.0986 56.79C90.0692 56.79 90.0492 56.8038 90.0385 56.8313C89.7657 57.5347 89.4894 58.2425 89.2096 58.9547C88.897 59.7508 87.9132 59.3941 88.2484 58.5342C89.0964 56.357 89.9428 54.1788 90.7876 51.9997C90.9444 51.596 91.5067 51.5735 91.7226 51.9105C91.7351 51.9293 91.8046 52.1014 91.931 52.4268C92.7245 54.4676 93.5171 56.5087 94.3088 58.5501C94.6308 59.38 93.6404 59.7254 93.3626 59.012C93.0803 58.2886 92.7984 57.5651 92.5168 56.8417C92.503 56.8066 92.4773 56.7891 92.4398 56.7891ZM90.475 55.7133C90.4734 55.7177 90.4728 55.7225 90.4733 55.7271C90.4739 55.7318 90.4756 55.7363 90.4783 55.7402C90.481 55.744 90.4845 55.7472 90.4887 55.7494C90.4929 55.7516 90.4975 55.7527 90.5023 55.7527H92.0512C92.0559 55.7527 92.0605 55.7516 92.0647 55.7494C92.0689 55.7472 92.0724 55.744 92.0751 55.7402C92.0778 55.7363 92.0795 55.7318 92.0801 55.7271C92.0806 55.7225 92.08 55.7177 92.0784 55.7133L91.3039 53.7129C91.3018 53.7073 91.2981 53.7026 91.2933 53.6992C91.2884 53.6959 91.2826 53.6941 91.2767 53.6941C91.2708 53.6941 91.265 53.6959 91.2602 53.6992C91.2553 53.7026 91.2516 53.7073 91.2495 53.7129L90.475 55.7133Z" fill="#777676"/>
<path d="M98.7257 56.2725C97.1401 57.3577 95.028 56.6818 94.4526 54.8344C94.3768 54.5903 94.3399 54.263 94.3418 53.8524C94.3437 53.3643 94.343 52.8774 94.3399 52.3918C94.338 52.149 94.374 51.9744 94.4479 51.868C94.6328 51.6023 95.1679 51.6173 95.3218 51.944C95.355 52.0154 95.3725 52.1255 95.3744 52.2744C95.38 52.7419 95.3807 53.2091 95.3763 53.676C95.3731 54.1015 95.411 54.4207 95.4899 54.6335C96.0484 56.1429 98.1174 56.0998 98.674 54.6241C98.7497 54.4244 98.786 54.1575 98.7829 53.8233C98.7779 53.3014 98.776 52.7804 98.7773 52.2604C98.7792 51.8145 99.1453 51.5544 99.547 51.7384C99.869 51.8858 99.8183 52.1693 99.8183 52.5467C99.8171 54.6494 99.8183 56.7519 99.8221 58.854C99.823 59.5674 98.7604 59.6125 98.7801 58.7122C98.7889 58.2867 98.7885 57.4825 98.7792 56.2997C98.7785 56.2572 98.7607 56.2481 98.7257 56.2725Z" fill="#777676"/>
<path d="M102.362 52.7744L102.365 54.9776C102.365 54.9907 102.37 55.0034 102.38 55.0127C102.389 55.0221 102.402 55.0273 102.415 55.0273C103.298 55.0248 104.185 55.0239 105.075 55.0245C105.257 55.0245 105.389 55.0473 105.471 55.093C105.806 55.2789 105.748 55.8628 105.418 56.0017C105.328 56.0393 105.155 56.058 104.897 56.058C104.062 56.0587 103.229 56.0587 102.398 56.058C102.393 56.058 102.388 56.059 102.383 56.061C102.379 56.0629 102.374 56.0657 102.371 56.0693C102.367 56.0729 102.364 56.0771 102.362 56.0818C102.36 56.0865 102.359 56.0915 102.359 56.0965L102.364 58.3129C102.365 58.3441 102.381 58.3598 102.412 58.3598C103.674 58.3629 104.933 58.3629 106.188 58.3598C106.358 58.3592 106.483 58.3795 106.563 58.4208C106.895 58.5926 106.871 59.1568 106.566 59.3164C106.467 59.3683 106.293 59.3943 106.045 59.3943C104.656 59.3936 103.266 59.393 101.877 59.3924C101.505 59.3924 101.32 59.1971 101.32 58.8066C101.325 56.6006 101.326 54.3946 101.323 52.1886C101.322 51.7643 101.636 51.6826 102.009 51.6826C103.465 51.6832 104.92 51.6832 106.374 51.6826C106.927 51.6826 107.032 52.7162 106.175 52.7209C104.923 52.7284 103.671 52.7277 102.419 52.719C102.381 52.7184 102.362 52.7368 102.362 52.7744Z" fill="#777676"/>
<path d="M113.881 53.2866C112.73 52.3986 111.142 52.5976 110.216 53.5072C108.681 55.0158 109.273 57.4893 111.263 58.199C112.156 58.5175 113.046 58.3661 113.932 57.7446C114.496 57.3476 115.119 58.1408 114.498 58.613C113.829 59.123 113.065 59.3837 112.205 59.3949C108.969 59.4381 107.106 55.6428 109.154 53.1317C110.049 52.0347 111.206 51.5572 112.625 51.6992C113.348 51.7706 113.861 52.0531 114.479 52.4277C115.156 52.8379 114.589 53.833 113.881 53.2866Z" fill="#777676"/>
<path d="M118.608 52.718C118.116 52.7343 117.619 52.7349 117.116 52.7199C116.852 52.7115 116.608 52.7715 116.405 52.5594C116.047 52.1886 116.321 51.6836 116.822 51.6836C118.435 51.6829 120.047 51.6826 121.659 51.6826C122.151 51.6817 122.262 52.412 121.856 52.6448C121.768 52.6955 121.633 52.7212 121.45 52.7218C120.887 52.7243 120.327 52.7218 119.771 52.7143C119.76 52.7142 119.75 52.7161 119.74 52.7201C119.73 52.724 119.722 52.7299 119.714 52.7373C119.706 52.7447 119.701 52.7536 119.696 52.7633C119.692 52.7731 119.69 52.7835 119.69 52.7941C119.689 54.7454 119.691 56.7023 119.695 58.6649C119.696 58.8877 119.677 59.0426 119.638 59.1295C119.49 59.459 118.932 59.4741 118.743 59.1633C118.684 59.0663 118.655 58.9165 118.655 58.7137C118.654 56.7349 118.654 54.7516 118.655 52.764C118.655 52.7327 118.639 52.7174 118.608 52.718Z" fill="#777676"/>
<path d="M127.227 54.971C128.907 56.1096 128.691 58.6461 126.7 59.2741C126.022 59.4881 124.992 59.3905 124.197 59.3952C123.719 59.398 123.61 59.0751 123.61 58.6451C123.609 56.493 123.609 54.3408 123.61 52.1886C123.61 51.7558 123.976 51.6807 124.352 51.6826C125.354 51.6854 126.499 51.4995 127.184 52.4176C127.779 53.2168 127.789 54.0451 127.213 54.9024C127.195 54.93 127.199 54.9528 127.227 54.971ZM124.642 52.795L124.646 54.5673C124.646 54.589 124.655 54.6097 124.67 54.6251C124.685 54.6404 124.706 54.649 124.728 54.649L125.561 54.6471C125.83 54.6466 126.087 54.5452 126.277 54.3653C126.467 54.1854 126.573 53.9416 126.572 53.6877V53.6671C126.572 53.5413 126.546 53.4168 126.495 53.3008C126.444 53.1847 126.369 53.0793 126.275 52.9905C126.18 52.9018 126.068 52.8315 125.945 52.7836C125.822 52.7357 125.691 52.7112 125.558 52.7114L124.724 52.7133C124.702 52.7133 124.682 52.7219 124.666 52.7372C124.651 52.7526 124.642 52.7733 124.642 52.795ZM124.642 55.7642L124.632 58.2762C124.632 58.2994 124.641 58.3216 124.658 58.3379C124.674 58.3543 124.696 58.3635 124.719 58.3635L125.907 58.3682C126.092 58.3689 126.275 58.335 126.445 58.2687C126.616 58.2023 126.772 58.1047 126.903 57.9815C127.034 57.8582 127.138 57.7117 127.209 57.5503C127.28 57.3889 127.317 57.2158 127.318 57.0408V57.0183C127.319 56.6651 127.172 56.3258 126.909 56.0751C126.646 55.8245 126.289 55.6829 125.916 55.6816L124.729 55.6769C124.706 55.6769 124.683 55.6861 124.667 55.7025C124.651 55.7188 124.642 55.741 124.642 55.7642Z" fill="#777676"/>
<path d="M137.573 55.5336C137.573 56.5591 137.166 57.5426 136.441 58.2677C135.715 58.9929 134.732 59.4002 133.706 59.4002C132.681 59.4002 131.697 58.9929 130.972 58.2677C130.247 57.5426 129.84 56.5591 129.84 55.5336C129.84 54.5081 130.247 53.5246 130.972 52.7995C131.697 52.0744 132.681 51.667 133.706 51.667C134.732 51.667 135.715 52.0744 136.441 52.7995C137.166 53.5246 137.573 54.5081 137.573 55.5336ZM136.527 55.5336C136.527 54.7857 136.23 54.0685 135.701 53.5396C135.173 53.0108 134.455 52.7137 133.707 52.7137C132.96 52.7137 132.242 53.0108 131.713 53.5396C131.185 54.0685 130.887 54.7857 130.887 55.5336C130.887 56.2815 131.185 56.9988 131.713 57.5276C132.242 58.0565 132.96 58.3536 133.707 58.3536C134.455 58.3536 135.173 58.0565 135.701 57.5276C136.23 56.9988 136.527 56.2815 136.527 55.5336Z" fill="#777676"/>
<path d="M150.453 56.7886L148.11 56.7895C148.096 56.7896 148.082 56.7939 148.071 56.802C148.059 56.81 148.051 56.8214 148.046 56.8346C147.775 57.5461 147.501 58.2449 147.224 58.9308C147.15 59.116 147.069 59.2415 146.981 59.3072C146.672 59.5391 146.159 59.2847 146.168 58.8989C146.17 58.8087 146.216 58.6488 146.305 58.4192C147.141 56.2657 147.977 54.1129 148.814 51.9607C148.935 51.65 149.408 51.5965 149.624 51.7936C149.696 51.8593 149.773 51.9961 149.854 52.2039C150.695 54.3686 151.536 56.5329 152.376 58.697C152.521 59.0725 152.161 59.4499 151.785 59.3823C151.489 59.3297 151.402 59.0847 151.301 58.8294C151.041 58.166 150.783 57.502 150.525 56.8374C150.519 56.8231 150.509 56.8108 150.497 56.802C150.484 56.7933 150.469 56.7887 150.453 56.7886ZM148.485 55.7128C148.483 55.7172 148.483 55.722 148.483 55.7266C148.484 55.7313 148.485 55.7358 148.488 55.7397C148.491 55.7436 148.494 55.7467 148.499 55.7489C148.503 55.7511 148.507 55.7522 148.512 55.7522H150.061C150.066 55.7522 150.07 55.7511 150.075 55.7489C150.079 55.7467 150.082 55.7436 150.085 55.7397C150.088 55.7358 150.089 55.7313 150.09 55.7266C150.09 55.722 150.09 55.7172 150.088 55.7128L149.314 53.7105C149.312 53.705 149.308 53.7002 149.303 53.6969C149.298 53.6935 149.292 53.6917 149.287 53.6917C149.281 53.6917 149.275 53.6935 149.27 53.6969C149.265 53.7002 149.261 53.705 149.259 53.7105L148.485 55.7128Z" fill="#777676"/>
<path d="M157.529 54.9693C159.218 56.1071 158.979 58.667 156.983 59.28C156.297 59.4903 155.265 59.3898 154.471 59.3945C153.998 59.3973 153.917 59.0528 153.917 58.6407C153.919 56.4973 153.918 54.3545 153.914 52.2123C153.913 51.7758 154.22 51.6828 154.609 51.6828C155.24 51.6819 156.075 51.5908 156.641 51.8077C157.873 52.278 158.318 53.8109 157.517 54.8942C157.495 54.9236 157.499 54.9487 157.529 54.9693ZM154.957 52.783V54.5798C154.957 54.5979 154.964 54.6154 154.977 54.6282C154.99 54.6411 155.007 54.6483 155.026 54.6483H155.865C156.132 54.6483 156.389 54.5472 156.578 54.3673C156.768 54.1874 156.874 53.9434 156.874 53.6889V53.6739C156.874 53.4194 156.768 53.1754 156.578 52.9955C156.389 52.8156 156.132 52.7145 155.865 52.7145H155.026C155.007 52.7145 154.99 52.7217 154.977 52.7346C154.964 52.7474 154.957 52.7649 154.957 52.783ZM154.952 55.7428L154.949 58.2981C154.949 58.3145 154.955 58.3303 154.967 58.3419C154.978 58.3535 154.994 58.36 155.01 58.36L156.238 58.3619C156.419 58.3622 156.598 58.3283 156.764 58.2621C156.931 58.196 157.083 58.0989 157.211 57.9764C157.339 57.8539 157.44 57.7085 157.509 57.5483C157.579 57.3882 157.614 57.2164 157.615 57.043V57.0054C157.615 56.6552 157.471 56.319 157.213 56.071C156.956 55.8229 156.607 55.6833 156.242 55.6828L155.014 55.6809C154.998 55.6809 154.982 55.6874 154.97 55.699C154.959 55.7107 154.952 55.7264 154.952 55.7428Z" fill="#777676"/>
<path d="M161.495 52.7274C160.904 52.718 160.314 52.7152 159.725 52.7189C158.983 52.7246 158.933 51.6845 159.716 51.6835C161.253 51.6835 162.79 51.6829 164.326 51.6816C164.539 51.6816 164.69 51.7057 164.781 51.7539C165.103 51.9267 165.079 52.4777 164.766 52.6476C164.675 52.697 164.526 52.7221 164.318 52.7227C163.76 52.7246 163.208 52.7221 162.663 52.7152C162.655 52.7151 162.647 52.7165 162.639 52.7196C162.632 52.7226 162.625 52.727 162.619 52.7327C162.613 52.7384 162.609 52.7452 162.606 52.7526C162.602 52.7601 162.601 52.7681 162.601 52.7762C162.602 54.6749 162.602 56.5646 162.602 58.4452C162.601 58.7744 162.598 58.9521 162.592 58.9784C162.452 59.5998 161.557 59.5191 161.562 58.7831C161.574 56.783 161.571 54.7832 161.551 52.7837C161.551 52.7468 161.533 52.728 161.495 52.7274Z" fill="#777676"/>
<path d="M173.866 55.5336C173.866 56.5591 173.459 57.5426 172.734 58.2677C172.008 58.9929 171.025 59.4002 169.999 59.4002C168.974 59.4002 167.99 58.9929 167.265 58.2677C166.54 57.5426 166.133 56.5591 166.133 55.5336C166.133 54.5081 166.54 53.5246 167.265 52.7995C167.99 52.0744 168.974 51.667 169.999 51.667C171.025 51.667 172.008 52.0744 172.734 52.7995C173.459 53.5246 173.866 54.5081 173.866 55.5336ZM172.819 55.5336C172.819 54.7857 172.522 54.0685 171.993 53.5396C171.465 53.0108 170.747 52.7137 169.999 52.7137C169.252 52.7137 168.534 53.0108 168.005 53.5396C167.477 54.0685 167.179 54.7857 167.179 55.5336C167.179 56.2815 167.477 56.9988 168.005 57.5276C168.534 58.0565 169.252 58.3536 169.999 58.3536C170.747 58.3536 171.465 58.0565 171.993 57.5276C172.522 56.9988 172.819 56.2815 172.819 55.5336Z" fill="#777676"/>
<path d="M176.464 56.1042C176.461 57.4503 176.462 58.3352 176.466 58.7589C176.474 59.5737 175.427 59.6075 175.427 58.834C175.427 56.6712 175.426 54.5087 175.426 52.3465C175.426 51.9738 175.522 51.6612 175.945 51.6753C176.282 51.6865 176.451 51.8736 176.454 52.2366C176.461 53.1503 176.465 54.0515 176.468 54.9402C176.468 54.9965 176.496 55.0246 176.552 55.0246H179.807C179.815 55.0246 179.824 55.0229 179.832 55.0196C179.84 55.0163 179.847 55.0115 179.853 55.0053C179.859 54.9992 179.864 54.992 179.867 54.984C179.87 54.976 179.872 54.9675 179.872 54.9589C179.869 54.0997 179.868 53.2461 179.868 52.3981C179.868 52.1471 179.904 51.9675 179.978 51.8592C180.16 51.5889 180.707 51.6227 180.859 51.9531C180.892 52.0245 180.909 52.1296 180.909 52.2685C180.908 54.4796 180.907 56.6903 180.908 58.9006C180.908 59.4104 180.149 59.5869 179.921 59.1062C179.883 59.0249 179.864 58.901 179.866 58.7345C179.876 57.859 179.876 56.9838 179.866 56.1089C179.866 56.0738 179.848 56.0563 179.813 56.0563L176.511 56.0572C176.48 56.0572 176.465 56.0729 176.464 56.1042Z" fill="#777676"/>
<path d="M190.143 55.5336C190.143 56.5591 189.736 57.5426 189.011 58.2677C188.286 58.9929 187.302 59.4002 186.277 59.4002C185.251 59.4002 184.268 58.9929 183.543 58.2677C182.818 57.5426 182.41 56.5591 182.41 55.5336C182.41 54.5081 182.818 53.5246 183.543 52.7995C184.268 52.0744 185.251 51.667 186.277 51.667C187.302 51.667 188.286 52.0744 189.011 52.7995C189.736 53.5246 190.143 54.5081 190.143 55.5336ZM189.098 55.5336C189.098 55.1633 189.025 54.7966 188.883 54.4545C188.741 54.1123 188.534 53.8015 188.272 53.5396C188.01 53.2778 187.699 53.0701 187.357 52.9283C187.015 52.7866 186.648 52.7137 186.278 52.7137C185.53 52.7137 184.813 53.0108 184.284 53.5396C183.755 54.0685 183.458 54.7857 183.458 55.5336C183.458 56.2815 183.755 56.9988 184.284 57.5276C184.813 58.0565 185.53 58.3536 186.278 58.3536C186.648 58.3536 187.015 58.2806 187.357 58.1389C187.699 57.9972 188.01 57.7895 188.272 57.5276C188.534 57.2658 188.741 56.9549 188.883 56.6128C189.025 56.2706 189.098 55.9039 189.098 55.5336Z" fill="#777676"/>
<path d="M197.552 54.2926C197.147 55.8565 196.705 57.4464 196.226 59.0623C196.077 59.5682 195.364 59.4584 195.23 58.9722C194.792 57.3845 194.36 55.8205 193.935 54.2804C193.91 54.1878 193.884 54.1878 193.859 54.2804C193.459 55.7292 193.058 57.1704 192.658 58.6042C192.578 58.8867 192.563 59.1712 192.279 59.3223C192.107 59.4137 191.939 59.4118 191.775 59.3167C191.497 59.1543 191.491 58.8933 191.574 58.592C192.175 56.4179 192.776 54.2447 193.378 52.0725C193.519 51.5581 194.269 51.5468 194.408 52.0472C194.851 53.6405 195.29 55.2269 195.726 56.8065C195.728 56.8128 195.732 56.8183 195.738 56.8222C195.743 56.8262 195.749 56.8283 195.756 56.8283C195.763 56.8283 195.769 56.8262 195.774 56.8222C195.78 56.8183 195.784 56.8128 195.786 56.8065C196.212 55.2232 196.649 53.6449 197.095 52.0716C197.258 51.4942 197.984 51.5722 198.143 52.142C198.739 54.2898 199.332 56.4385 199.921 58.5882C200.01 58.9149 199.975 59.2763 199.62 59.3739C199.282 59.4666 199.062 59.3298 198.958 58.9637C198.521 57.4186 198.082 55.8615 197.641 54.2926C197.611 54.1825 197.581 54.1825 197.552 54.2926Z" fill="#777676"/>
<path d="M202.6 56.1062C202.595 57.0068 202.596 57.907 202.602 58.807C202.603 59.1756 202.441 59.3714 202.113 59.3946C201.668 59.4256 201.559 59.0689 201.56 58.6812C201.562 56.5208 201.562 54.3608 201.559 52.2011C201.558 51.6454 202.327 51.4717 202.541 51.9552C202.58 52.0403 202.599 52.1827 202.599 52.3823C202.599 53.2403 202.6 54.097 202.601 54.9525C202.601 55.0007 202.625 55.0248 202.673 55.0248L205.934 55.0258C205.954 55.0258 205.973 55.0179 205.986 55.004C206 54.9901 206.008 54.9713 206.008 54.9516C206.003 54.0679 206.003 53.174 206.007 52.2697C206.008 52.122 206.03 52.0096 206.072 51.9327C206.233 51.6351 206.711 51.5928 206.914 51.8294C206.997 51.9264 207.039 52.0829 207.039 52.2988C207.039 54.4297 207.039 56.56 207.04 58.6896C207.04 58.9055 207.018 59.0582 206.974 59.1477C206.804 59.4979 206.201 59.4528 206.055 59.097C206.018 59.005 206 58.8398 206.003 58.6014C206.013 57.7747 206.011 56.9473 205.998 56.1194C205.997 56.0793 205.977 56.0593 205.937 56.0593L202.651 56.0555C202.638 56.0555 202.625 56.0609 202.615 56.0703C202.605 56.0798 202.6 56.0927 202.6 56.1062Z" fill="#777676"/>
<path d="M216.286 55.5336C216.286 56.5593 215.878 57.543 215.153 58.2684C214.428 58.9937 213.444 59.4011 212.418 59.4011C211.393 59.4011 210.409 58.9937 209.684 58.2684C208.958 57.543 208.551 56.5593 208.551 55.5336C208.551 54.5078 208.958 53.5241 209.684 52.7988C210.409 52.0735 211.393 51.666 212.418 51.666C213.444 51.666 214.428 52.0735 215.153 52.7988C215.878 53.5241 216.286 54.5078 216.286 55.5336ZM215.239 55.5336C215.239 54.7857 214.942 54.0684 214.413 53.5396C213.884 53.0107 213.167 52.7136 212.419 52.7136C211.671 52.7136 210.954 53.0107 210.425 53.5396C209.896 54.0684 209.599 54.7857 209.599 55.5336C209.599 56.2815 209.896 56.9987 210.425 57.5276C210.954 58.0564 211.671 58.3535 212.419 58.3535C213.167 58.3535 213.884 58.0564 214.413 57.5276C214.942 56.9987 215.239 56.2815 215.239 55.5336Z" fill="#777676"/>
<path d="M219.66 53.5807C218.275 55.0949 218.798 57.4248 220.717 58.1711C221.636 58.5285 222.552 58.3836 223.467 57.7365C224.035 57.3347 224.667 58.1664 223.97 58.6593C221.457 60.4382 218.017 58.8179 217.846 55.722C217.66 52.3632 221.604 50.4013 224.209 52.5988C224.231 52.6172 224.248 52.6416 224.257 52.6692C224.396 53.0729 224.202 53.4747 223.774 53.4474C223.665 53.4406 223.519 53.3698 223.334 53.2353C222.212 52.4177 220.563 52.5941 219.66 53.5807Z" fill="#777676"/>
<path d="M228.133 52.7302C227.312 52.7052 226.758 52.7024 226.472 52.7218C226.077 52.748 225.761 52.5593 225.791 52.136C225.816 51.7905 226.078 51.6816 226.404 51.6816C227.933 51.6835 229.461 51.6835 230.99 51.6816C231.342 51.6816 231.661 51.799 231.652 52.1895C231.646 52.5506 231.444 52.7299 231.048 52.7274C230.46 52.7243 229.88 52.7199 229.307 52.7142C229.297 52.7141 229.288 52.7159 229.279 52.7194C229.27 52.7229 229.262 52.7282 229.256 52.7348C229.249 52.7414 229.243 52.7493 229.24 52.7581C229.236 52.7668 229.234 52.7761 229.234 52.7856C229.242 54.8126 229.244 56.8353 229.241 58.8535C229.24 59.3952 228.552 59.5979 228.281 59.1567C228.224 59.0616 228.196 58.9167 228.198 58.7221C228.22 56.7433 228.217 54.7651 228.189 52.7875C228.189 52.7505 228.17 52.7315 228.133 52.7302Z" fill="#777676"/>
<path d="M234.25 55.019C234.923 55.035 235.811 54.9317 236.393 55.1232C238.386 55.7775 238.367 58.6322 236.376 59.2752C236.117 59.359 235.721 59.3988 235.186 59.3944C234.698 59.3906 234.21 59.3885 233.722 59.3878C233.251 59.3878 233.145 59.1081 233.147 58.6782C233.155 56.5854 233.154 54.4936 233.145 52.4028C233.143 52.0047 233.26 51.6217 233.726 51.6809C234.207 51.7419 234.19 52.1577 234.189 52.5961C234.188 53.3828 234.188 54.1698 234.189 54.957C234.189 54.9733 234.196 54.9889 234.207 55.0005C234.219 55.0121 234.234 55.0187 234.25 55.019ZM234.178 56.1464V58.2754C234.178 58.2993 234.188 58.3223 234.204 58.3392C234.221 58.3561 234.244 58.3656 234.268 58.3656H235.659C235.974 58.3656 236.275 58.2455 236.497 58.0318C236.719 57.8181 236.844 57.5282 236.844 57.2259V57.1959C236.844 56.8937 236.719 56.6038 236.497 56.3901C236.275 56.1764 235.974 56.0563 235.659 56.0563H234.268C234.244 56.0563 234.221 56.0658 234.204 56.0827C234.188 56.0996 234.178 56.1225 234.178 56.1464Z" fill="#777676"/>
</svg>
