<svg width="29" height="29" viewBox="0 0 29 29" fill="none" xmlns="http://www.w3.org/2000/svg">
<path d="M14.5 0C11.6322 0 8.82875 0.85041 6.44424 2.44369C4.05972 4.03697 2.20122 6.30156 1.10375 8.95109C0.00628267 11.6006 -0.280866 14.5161 0.27862 17.3288C0.838105 20.1415 2.2191 22.7252 4.24696 24.753C6.27482 26.7809 8.85847 28.1619 11.6712 28.7214C14.4839 29.2809 17.3994 28.9937 20.0489 27.8962C22.6984 26.7988 24.963 24.9403 26.5563 22.5558C28.1496 20.1713 29 17.3678 29 14.5C29 10.6544 27.4723 6.96623 24.7531 4.24695C22.0338 1.52767 18.3456 0 14.5 0ZM14.5181 5.4375C15.4253 5.44043 16.3112 5.71226 17.0638 6.2186C17.8165 6.72495 18.4021 7.44309 18.7467 8.28223C19.0913 9.12137 19.1793 10.0438 18.9997 10.933C18.8201 11.8222 18.3809 12.6381 17.7376 13.2777C17.0944 13.9173 16.2759 14.3519 15.3857 14.5263C14.4955 14.7008 13.5736 14.6075 12.7364 14.2581C11.8993 13.9087 11.1845 13.3189 10.6825 12.5634C10.1805 11.8078 9.91375 10.9204 9.91603 10.0132C9.91776 9.41061 10.0382 8.81423 10.2704 8.25813C10.5026 7.70204 10.8421 7.19713 11.2694 6.77224C11.6967 6.34734 12.2036 6.01078 12.761 5.78176C13.3184 5.55275 13.9155 5.43577 14.5181 5.4375ZM19.6557 16.413C19.0946 16.9795 18.4172 17.4175 17.6702 17.6966C16.9427 17.958 16.1856 18.1279 15.4161 18.2024C15.5315 18.3277 15.5809 18.3903 15.66 18.4628C16.703 19.5107 17.751 20.5554 18.7907 21.6083C18.9563 21.7589 19.0687 21.9591 19.1109 22.179C19.153 22.3988 19.1228 22.6264 19.0247 22.8276C18.9242 23.0477 18.7614 23.2336 18.5564 23.3622C18.3514 23.4907 18.1132 23.5564 17.8713 23.551C17.5883 23.5223 17.3266 23.3882 17.138 23.1753C16.3504 22.3827 15.548 21.605 14.7768 20.7976C14.5527 20.562 14.4473 20.6065 14.2463 20.8108C13.4537 21.6347 12.648 22.4289 11.8389 23.228C11.6888 23.3947 11.4874 23.5066 11.2666 23.546C11.0458 23.5854 10.8181 23.55 10.6196 23.4455C10.4042 23.3454 10.2224 23.1851 10.0961 22.9839C9.96982 22.7828 9.90441 22.5494 9.90779 22.3119C9.932 22.0178 10.069 21.7444 10.2901 21.549C11.3237 20.5175 12.3547 19.4849 13.3828 18.4512C13.452 18.382 13.5147 18.3095 13.6152 18.2041C12.2097 18.0574 10.9426 17.7098 9.85836 16.8628C9.72044 16.7599 9.5879 16.6499 9.46125 16.5333C8.98671 16.0785 8.93892 15.5562 9.31461 15.0174C9.63591 14.5577 10.1747 14.4341 10.7366 14.6977C10.8425 14.7521 10.9439 14.8149 11.0398 14.8856C12.0447 15.568 13.2289 15.9381 14.4436 15.9492C15.6582 15.9603 16.8491 15.6121 17.8663 14.9482C18.0602 14.7896 18.2845 14.6724 18.5254 14.6038C18.7493 14.5384 18.9886 14.55 19.2052 14.6366C19.4217 14.7232 19.603 14.8799 19.72 15.0816C20.0248 15.5644 20.0215 16.0373 19.6557 16.413ZM14.5115 12.269C14.9564 12.2667 15.3906 12.1323 15.759 11.8828C16.1273 11.6334 16.4134 11.2802 16.5807 10.868C16.7481 10.4558 16.7892 10.0032 16.699 9.56756C16.6087 9.13193 16.3911 8.73291 16.0738 8.42113C15.7564 8.10934 15.3537 7.89883 14.9165 7.81629C14.4793 7.73376 14.0275 7.78291 13.6183 7.95753C13.2092 8.13214 12.8611 8.42435 12.6182 8.79708C12.3753 9.16982 12.2486 9.60629 12.2542 10.0511C12.2559 10.3452 12.3157 10.6361 12.4303 10.907C12.5448 11.1779 12.7118 11.4234 12.9216 11.6296C13.1314 11.8357 13.3798 11.9983 13.6527 12.108C13.9256 12.2178 14.2175 12.2725 14.5115 12.269Z" fill="#858688"/>
</svg>
