<svg width="238" height="73" viewBox="0 0 238 73" fill="none" xmlns="http://www.w3.org/2000/svg">
<path d="M33.7023 26.16C33.9045 25.5655 34.12 24.9747 34.3491 24.3877C34.6776 23.5435 34.8932 22.9558 34.9959 22.6248C36.7475 16.9849 36.0407 10.8334 33.4883 5.5493C33.8425 4.3471 34.2214 3.16274 34.6251 1.99621C34.8472 1.3535 35.0391 0.693258 35.2005 0.0154959C35.2006 0.0112635 35.2024 0.00725387 35.2055 0.00434912C35.2086 0.00144436 35.2127 -0.000117574 35.217 6.9089e-06C35.2212 0.000131392 35.2252 0.0019321 35.2281 0.0050129C35.231 0.0080937 35.2326 0.0122022 35.2324 0.0164347C36.302 5.55806 37.548 11.0624 38.9705 16.5296C39.1895 17.3694 39.3384 17.9774 39.4173 18.3535C40.4734 23.3645 40.3269 29.0907 37.8656 33.7111C37.3061 34.7625 36.4603 35.9397 35.3291 36.4259C35.3203 36.4297 35.3106 36.431 35.3011 36.4298C35.2916 36.4286 35.2826 36.4249 35.275 36.4191C35.2674 36.4132 35.2614 36.4055 35.2577 36.3967C35.2541 36.3878 35.2528 36.3782 35.254 36.3687C35.73 32.962 34.9367 29.3057 33.7962 26.0971C33.7939 26.0914 33.7895 26.0869 33.7838 26.0844C33.7782 26.082 33.7719 26.0818 33.7661 26.084C33.7436 26.0927 33.7223 26.1181 33.7023 26.16Z" fill="#4C9BBB" fill-opacity="0.78"/>
<path d="M33.4863 5.54875C36.0387 10.8329 36.7455 16.9843 34.9938 22.6242C34.8912 22.9553 34.6756 23.5429 34.3471 24.3871C34.118 24.9742 33.9024 25.5649 33.7003 26.1595C33.1414 27.7253 32.7503 29.323 32.5269 30.9526C32.311 32.525 32.4433 34.4043 33.5698 35.589C33.9049 35.942 34.4006 36.279 34.8239 36.5568C35.0067 36.677 34.9888 36.7299 34.7704 36.7155C29.3521 36.3625 27.3911 30.8747 27.2052 26.2843C27.0738 23.0282 27.5413 19.8525 28.6077 16.7572C29.5771 13.9429 30.5502 11.1289 31.5271 8.31518C31.8857 7.28321 32.2212 6.24372 32.5334 5.19673C32.6226 4.89446 32.6799 4.58092 32.7024 4.29179C32.7099 4.19291 32.7378 4.18697 32.786 4.27396L33.4863 5.54875Z" fill="#86D0EF"/>
<path d="M24.2035 44.4615C23.8796 43.4467 23.0329 43.4101 22.1289 43.4355C21.3817 43.4571 20.7574 43.719 20.5453 44.4606C20.4683 44.7303 20.4717 45.0904 20.5556 45.541C20.7953 46.8283 21.3582 47.967 22.2444 48.9571C22.419 49.1514 22.51 49.5241 22.51 49.8169C22.5107 51.6794 22.5119 53.5415 22.5138 55.4033C22.5138 55.8539 22.4687 56.1803 22.3786 56.3824C22.0726 57.0677 21.1461 57.3474 20.4758 57.0057C20.3532 56.9431 20.1138 56.766 19.7577 56.4744C17.8896 54.9433 16.3257 53.0584 15.1992 50.9209C13.1575 47.0449 12.0864 42.4676 12.4262 38.0613C12.4854 37.2887 12.5961 36.7358 13.2767 36.4204C13.4569 36.3371 13.7167 36.2955 14.0559 36.2955C18.3252 36.2968 22.5939 36.2968 26.862 36.2955C27.2863 36.2955 27.5842 36.3284 27.7557 36.3941C28.0711 36.5142 28.3004 36.7351 28.4437 37.0568C30.1253 40.8336 31.0662 44.8392 31.2665 49.0735C31.2865 49.5047 31.299 50.1302 31.304 50.95C31.3466 57.951 31.3594 64.9524 31.3425 71.954C31.3416 72.3408 31.0956 73.0448 30.585 72.9988C23.8268 72.388 17.8273 70.0027 12.5867 65.8429C9.49457 63.3891 6.7028 60.2462 4.67514 56.7861C0.673658 49.9609 -0.759155 42.6019 0.376706 34.709C0.893632 31.1175 2.02042 27.6548 3.75706 24.3211C7.32986 17.4627 13.1781 12.1721 20.2336 9.05173C20.5296 8.92093 20.775 8.86117 20.9696 8.87243C21.684 8.91468 21.8623 9.44318 21.9459 10.1012C22.1167 11.4449 22.2894 12.7882 22.464 14.1312C22.5366 14.6894 22.5466 15.0777 22.4941 15.2962C22.3914 15.7242 22.1289 16.0471 21.7065 16.2649C15.7675 19.3314 11.5197 23.955 8.96325 30.1356C8.54364 31.1494 8.25451 32.1444 7.97102 33.2709C6.74754 38.1323 6.88772 42.9448 8.39156 47.7086C10.5995 54.703 15.7953 60.6893 22.3645 63.7833C22.9972 64.0809 23.843 63.7017 24.1237 63.0633C24.2001 62.8887 24.2382 62.599 24.2382 62.1941C24.2382 56.3577 24.2382 50.521 24.2382 44.684C24.2382 44.6083 24.2267 44.5341 24.2035 44.4615Z" fill="white"/>
<path d="M56.1366 41.092C55.905 44.3043 55.0968 47.3471 53.7118 50.2202C52.4946 52.746 50.7793 54.8891 48.5657 56.6496C48.2484 56.9024 47.9862 57.0563 47.7791 57.1114C47.152 57.2785 46.401 56.949 46.1476 56.3417C46.0731 56.1639 46.0359 55.8651 46.0359 55.4452C46.0352 53.5001 46.0355 51.5554 46.0368 49.611C46.0368 49.4157 46.2011 49.1003 46.3485 48.9163C47.198 47.8537 47.7256 46.9027 47.9856 45.5031C48.0673 45.0619 48.1217 44.7071 47.9396 44.2987C47.5528 43.4285 46.7446 43.4041 45.9044 43.4379C45.2398 43.4642 44.7198 43.6238 44.4335 44.2236C44.3508 44.3982 44.3095 44.6482 44.3095 44.9737C44.3095 50.7575 44.3092 56.5407 44.3086 62.3232C44.3086 62.6286 44.3483 62.8715 44.4278 63.0517C44.731 63.737 45.5036 64.0758 46.2217 63.751C46.5465 63.6046 46.8654 63.4472 47.1783 63.2789C57.738 57.5977 63.4352 45.628 60.7082 33.8403C60.384 32.4385 60.0686 31.3386 59.7619 30.5407C59.5886 30.0889 59.2816 29.4058 58.841 28.4915C56.3346 23.2815 52.3094 19.1586 47.2036 16.4589C46.7706 16.2298 46.4886 16.0361 46.3578 15.8778C45.9974 15.4441 45.9767 14.9982 46.0499 14.404C46.2321 12.9195 46.4223 11.436 46.6207 9.95347C46.7005 9.35362 46.969 8.8805 47.6082 8.86924C47.7979 8.86611 48.0585 8.93808 48.3902 9.08515C54.2929 11.7054 59.0776 15.6537 62.7443 20.93C69.0385 29.9859 70.2222 41.8777 66.181 52.1183C63.4164 59.1241 58.2543 64.901 51.7912 68.6728C47.6195 71.1079 42.618 72.6952 37.7807 72.9975C37.7511 72.9994 37.7216 72.99 37.6981 72.9712C37.3639 72.7046 37.1965 72.3573 37.1959 71.9292C37.1696 61.254 37.1855 53.9398 37.2437 49.9865C37.3069 45.6871 38.2094 41.4925 39.951 37.4028C40.2993 36.5861 40.6344 36.2942 41.5093 36.2942C45.8738 36.2948 50.2376 36.2954 54.6008 36.2961C55.4119 36.2961 55.9967 36.7908 56.0878 37.6169C56.2089 38.7114 56.2192 39.9505 56.1366 41.092Z" fill="white"/>
<path d="M196.622 31.8103L203.418 31.7652C203.44 31.7652 203.462 31.7587 203.48 31.7465C203.498 31.7343 203.512 31.717 203.521 31.6967C204.419 29.5564 205.313 27.4299 206.204 25.3171C206.598 24.3815 206.866 23.8177 207.009 23.6255C207.716 22.6718 209.133 22.2869 210.253 22.7459C211.408 23.2191 212.113 24.3718 211.971 25.626C211.936 25.9445 211.789 26.4085 211.532 27.0181C210.42 29.6565 209.308 32.2981 208.196 34.9428C208.191 34.9549 208.188 34.968 208.189 34.9811C208.189 34.9941 208.192 35.007 208.198 35.0189C209.378 37.519 210.56 40.0217 211.745 42.5268C212.374 43.857 211.798 45.512 210.499 46.1597C209.378 46.7201 208.036 46.5211 207.18 45.5899C206.977 45.3696 206.748 44.9885 206.491 44.4465C205.366 42.0678 204.247 39.6978 203.134 37.3366C203.124 37.3152 203.108 37.2972 203.088 37.2846C203.068 37.2719 203.046 37.2652 203.022 37.2653H196.616C196.583 37.2653 196.565 37.2825 196.565 37.3169C196.555 39.2657 196.554 41.2117 196.562 43.1548C196.565 43.6649 196.525 44.0582 196.443 44.3348C196.061 45.6303 194.718 46.477 193.36 46.2179C192.02 45.9626 191.097 44.8699 191.098 43.4824C191.1 37.6655 191.1 31.8491 191.099 26.0334C191.099 25.4413 191.143 25.0008 191.231 24.7116C191.983 22.2522 195.672 22.2221 196.438 24.737C196.523 25.0148 196.564 25.4301 196.562 25.9827C196.554 27.9064 196.556 29.8302 196.566 31.754C196.566 31.7915 196.585 31.8103 196.622 31.8103Z" fill="white"/>
<path d="M222.269 41.5101C221.901 42.3837 221.53 43.2671 221.158 44.1601C220.939 44.6846 220.737 45.0579 220.551 45.28C219.127 46.9838 216.461 46.3859 215.763 44.3291C215.495 43.5396 215.67 42.8525 216.016 42.0245C218.375 36.3922 220.734 30.7595 223.092 25.1265C223.369 24.465 223.604 24.0185 223.798 23.7869C224.482 22.9674 225.288 22.8125 226.393 22.8069C227.712 22.8012 228.821 22.7121 229.715 23.7559C229.922 23.9981 230.181 24.4881 230.49 25.226C232.875 30.9291 235.263 36.6315 237.651 42.3334C238.032 43.2414 237.987 44.1 237.515 44.9092C236.547 46.5689 234.207 46.7238 232.99 45.2725C232.805 45.0522 232.617 44.7171 232.426 44.2671C232.04 43.3541 231.658 42.4398 231.28 41.5242C231.27 41.5003 231.253 41.4798 231.232 41.4655C231.211 41.4511 231.186 41.4434 231.16 41.4435L222.369 41.4444C222.321 41.4444 222.288 41.4663 222.269 41.5101ZM224.637 35.8524C224.635 35.8573 224.634 35.8627 224.635 35.868C224.635 35.8733 224.637 35.8784 224.64 35.8828C224.643 35.8873 224.647 35.8909 224.652 35.8934C224.656 35.896 224.662 35.8974 224.667 35.8974H228.874C228.88 35.8974 228.885 35.896 228.889 35.8934C228.894 35.8909 228.898 35.8873 228.901 35.8828C228.904 35.8784 228.906 35.8733 228.906 35.868C228.907 35.8627 228.906 35.8573 228.904 35.8524L226.801 30.8405C226.798 30.8347 226.794 30.8298 226.788 30.8263C226.783 30.8228 226.777 30.821 226.771 30.821C226.764 30.821 226.758 30.8228 226.753 30.8263C226.747 30.8298 226.743 30.8347 226.74 30.8405L224.637 35.8524Z" fill="white"/>
<path d="M86.4562 41.1925C86.4462 41.7733 86.4418 42.3538 86.4431 42.9339C86.4443 43.6129 86.4052 44.0854 86.3257 44.3514C85.9531 45.5886 84.7346 46.3856 83.4316 46.2532C82.3155 46.1396 81.3674 45.3455 81.0651 44.2641C80.9994 44.0294 80.9665 43.6151 80.9665 43.0212C80.9647 37.1911 80.9643 31.3606 80.9656 25.5299C80.9656 24.3856 81.7316 23.3314 82.813 22.9662C83.0796 22.8761 83.4977 22.831 84.0672 22.831C87.5792 22.8316 91.091 22.8313 94.6025 22.8301C95.4217 22.8301 96.0453 22.8664 96.4734 22.939C99.8143 23.5088 102.518 26.1532 103.122 29.495C103.311 30.5323 103.293 31.9038 103.317 33.0857C103.371 35.8521 102.512 38.7171 99.9561 40.129C99.5424 40.3574 99.0098 40.553 98.3583 40.7157C97.2375 40.996 96.1264 41.1359 95.0249 41.1353C92.1868 41.1328 89.3487 41.134 86.5107 41.139C86.475 41.139 86.4568 41.1569 86.4562 41.1925ZM97.6383 30.1212C97.3107 29.1468 96.2894 28.2963 95.1892 28.2954C92.291 28.2935 89.4016 28.2929 86.521 28.2935C86.5008 28.2935 86.4815 28.3015 86.4672 28.3157C86.453 28.33 86.445 28.3493 86.445 28.3695V35.5733C86.445 35.5942 86.4532 35.6143 86.4678 35.6291C86.4824 35.6439 86.5022 35.6522 86.5229 35.6522C89.3973 35.6559 92.2782 35.6597 95.1657 35.6634C96.4058 35.6644 97.5989 35.2908 97.7585 33.8639C97.8392 33.1495 97.8045 32.4201 97.7989 31.7011C97.7932 30.9513 97.7397 30.4247 97.6383 30.1212Z" fill="white"/>
<path d="M138.098 30.9998C138.378 31.4241 138.865 31.7959 139.4 31.7968C141.966 31.8012 144.532 31.8031 147.099 31.8025C147.978 31.8025 148.602 31.8294 148.972 31.8832C152.724 32.4267 155.362 35.8568 155.086 39.6333C154.847 42.8888 152.39 45.6327 149.159 46.1716C148.758 46.2379 148.134 46.2711 147.287 46.2711C143.507 46.2692 139.728 46.2692 135.95 46.2711C135.085 46.2717 134.511 46.2288 134.226 46.1425C133.21 45.8355 132.422 44.8573 132.321 43.7862C132.199 42.5077 133.008 41.2902 134.231 40.9259C134.563 40.8271 135.182 40.7782 136.088 40.7795C139.997 40.7839 143.905 40.7845 147.814 40.7814C148.135 40.7808 148.389 40.741 148.578 40.6622C150.347 39.9243 149.759 37.2978 147.896 37.2874C145.232 37.2718 142.568 37.2652 139.904 37.2677C139.129 37.2677 138.531 37.2264 138.107 37.1438C134.553 36.4454 132.134 33.1608 132.322 29.587C132.492 26.3513 134.885 23.5867 138.081 22.9568C138.512 22.8717 139.129 22.8295 139.932 22.8301C143.855 22.8307 147.779 22.8307 151.702 22.8301C152.313 22.8295 152.759 22.8748 153.04 22.9662C154.125 23.3173 154.884 24.4015 154.886 25.5449C154.887 26.754 154.127 27.8082 152.963 28.1715C152.699 28.2541 152.331 28.295 151.857 28.2944C147.865 28.2919 143.873 28.2919 139.881 28.2944C139.405 28.2944 139.06 28.3379 138.844 28.4249C137.813 28.8398 137.5 30.0893 138.098 30.9998Z" fill="white"/>
<path d="M164.001 31.8017L175.754 31.8036C175.767 31.8036 175.78 31.7984 175.789 31.7893C175.798 31.7801 175.803 31.7677 175.803 31.7548C175.804 29.9023 175.804 28.0549 175.803 26.2125C175.803 25.4866 175.851 24.9731 175.946 24.6721C176.71 22.2558 180.369 22.2455 181.13 24.6993C181.222 24.9959 181.268 25.4762 181.268 26.1402C181.265 31.6969 181.265 37.2535 181.268 42.8102C181.269 43.578 181.221 44.1153 181.125 44.422C180.78 45.5156 179.666 46.3069 178.5 46.2778C177.321 46.2487 176.272 45.4649 175.937 44.3394C175.842 44.0183 175.796 43.4275 175.799 42.567C175.806 40.8173 175.807 39.0759 175.8 37.343C175.8 37.3226 175.792 37.303 175.777 37.2886C175.763 37.2742 175.743 37.266 175.722 37.266L163.998 37.2651C163.987 37.2651 163.977 37.2694 163.969 37.2769C163.962 37.2845 163.957 37.2948 163.957 37.3055C163.954 39.3675 163.945 41.4343 163.933 43.5058C163.926 44.6041 163.478 45.4014 162.588 45.8976C161.104 46.7247 159.121 45.9849 158.612 44.3469C158.53 44.0803 158.489 43.7032 158.489 43.2157C158.495 37.5195 158.495 31.8233 158.488 26.1271C158.488 25.4468 158.534 24.9593 158.627 24.6646C159.39 22.2548 163.053 22.252 163.812 24.6965C163.908 25.0063 163.955 25.5667 163.954 26.3777C163.95 28.1695 163.95 29.9621 163.955 31.7557C163.955 31.7679 163.96 31.7796 163.969 31.7882C163.978 31.7969 163.989 31.8017 164.001 31.8017Z" fill="white"/>
<path d="M123.757 24.3464C124.772 22.2268 128.084 22.4032 128.804 24.6834C128.903 24.9963 128.954 25.5458 128.956 26.3318C128.961 28.9427 128.96 31.554 128.951 34.1655C128.943 36.2927 128.855 38.3654 128.119 40.3846C127.102 43.1717 124.921 44.8811 122.128 45.6452C119.415 46.3881 116.693 46.4231 113.96 45.7504C112.517 45.3955 111.057 44.7365 109.938 43.7734C107.277 41.4829 106.816 38.0838 106.799 34.7644C106.785 31.9295 106.779 29.0945 106.782 26.2595C106.783 25.5136 106.825 24.9995 106.908 24.7172C107.639 22.2324 111.364 22.2455 112.122 24.7388C112.206 25.0148 112.248 25.4056 112.247 25.9113C112.241 28.9208 112.241 31.9304 112.246 34.94C112.247 35.7992 112.315 36.6528 112.45 37.5008C112.77 39.5172 114.07 40.2832 115.934 40.6042C117.359 40.8496 118.791 40.8233 120.228 40.5254C121.748 40.21 122.854 39.4252 123.215 37.85C123.474 36.7207 123.478 35.3652 123.484 34.0303C123.496 31.1422 123.497 28.2537 123.489 25.3649C123.489 25.0602 123.578 24.7207 123.757 24.3464Z" fill="white"/>
<path d="M186.124 43.8099C187.614 43.8099 188.822 42.602 188.822 41.112C188.822 39.622 187.614 38.4141 186.124 38.4141C184.634 38.4141 183.426 39.622 183.426 41.112C183.426 42.602 184.634 43.8099 186.124 43.8099Z" fill="#21BBEF"/>
<path d="M82.6042 54.9096C82.6054 54.9722 82.6283 54.9812 82.6727 54.9368C83.6884 53.918 84.7079 52.8976 85.7311 51.8756C85.8375 51.7686 85.9426 51.7044 86.0465 51.6832C86.391 51.6128 86.7393 51.9216 86.6726 52.2605C86.6482 52.385 86.5581 52.5255 86.4023 52.682C85.6112 53.4743 84.8237 54.2612 84.0395 55.0429C84.0182 55.0642 84.0167 55.087 84.0348 55.1114C84.8396 56.2028 85.6397 57.2871 86.4351 58.3641C86.5728 58.5506 86.6489 58.6964 86.6632 58.8015C86.6989 59.0644 86.5215 59.3084 86.2624 59.3685C86.0359 59.4211 85.8381 59.3322 85.6691 59.1019C84.8775 58.0249 84.083 56.9485 83.2857 55.8727C83.2818 55.8675 83.2769 55.8631 83.2712 55.8599C83.2656 55.8567 83.2593 55.8548 83.2529 55.8543C83.2465 55.8537 83.24 55.8546 83.234 55.8568C83.228 55.859 83.2226 55.8625 83.2181 55.8671L82.6352 56.4491C82.6224 56.4616 82.6122 56.4765 82.6053 56.493C82.5983 56.5094 82.5948 56.527 82.5948 56.5448C82.5948 57.2589 82.5957 57.9714 82.5976 58.6823C82.5982 58.9001 82.5726 59.0566 82.5206 59.1517C82.2775 59.5985 81.5547 59.4117 81.5547 58.8297C81.5572 56.6925 81.5575 54.5554 81.5556 52.4182C81.5556 52.1791 81.5775 52.0133 81.6213 51.9207C81.8326 51.4748 82.592 51.6362 82.5892 52.2351C82.5848 53.1401 82.5898 54.0315 82.6042 54.9096Z" fill="#777676"/>
<path d="M92.4437 56.7891L90.1025 56.79C90.0731 56.79 90.0531 56.8038 90.0424 56.8313C89.7696 57.5347 89.4933 58.2425 89.2135 58.9547C88.9009 59.7508 87.9171 59.3941 88.2523 58.5342C89.1003 56.357 89.9467 54.1788 90.7915 51.9997C90.9483 51.596 91.5106 51.5735 91.7265 51.9105C91.739 51.9293 91.8085 52.1014 91.9349 52.4268C92.7284 54.4676 93.521 56.5087 94.3127 58.5501C94.6347 59.38 93.6443 59.7254 93.3665 59.012C93.0842 58.2886 92.8023 57.5651 92.5207 56.8417C92.5069 56.8066 92.4812 56.7891 92.4437 56.7891ZM90.4789 55.7133C90.4773 55.7177 90.4767 55.7225 90.4773 55.7271C90.4778 55.7318 90.4795 55.7363 90.4822 55.7402C90.4849 55.744 90.4885 55.7472 90.4926 55.7494C90.4968 55.7516 90.5014 55.7527 90.5062 55.7527H92.0551C92.0598 55.7527 92.0644 55.7516 92.0686 55.7494C92.0728 55.7472 92.0763 55.744 92.079 55.7402C92.0817 55.7363 92.0834 55.7318 92.084 55.7271C92.0845 55.7225 92.084 55.7177 92.0823 55.7133L91.3078 53.7129C91.3057 53.7073 91.302 53.7026 91.2972 53.6992C91.2923 53.6959 91.2865 53.6941 91.2806 53.6941C91.2747 53.6941 91.2689 53.6959 91.2641 53.6992C91.2592 53.7026 91.2555 53.7073 91.2534 53.7129L90.4789 55.7133Z" fill="#777676"/>
<path d="M98.7257 56.2715C97.1401 57.3567 95.028 56.6808 94.4526 54.8334C94.3768 54.5893 94.3399 54.262 94.3418 53.8515C94.3437 53.3633 94.343 52.8764 94.3399 52.3908C94.338 52.148 94.374 51.9734 94.4479 51.867C94.6328 51.6013 95.1679 51.6164 95.3218 51.943C95.355 52.0144 95.3725 52.1245 95.3744 52.2735C95.38 52.741 95.3807 53.2081 95.3763 53.675C95.3731 54.1005 95.411 54.4197 95.4899 54.6325C96.0484 56.142 98.1174 56.0988 98.674 54.6231C98.7497 54.4235 98.786 54.1566 98.7829 53.8224C98.7779 53.3004 98.776 52.7794 98.7773 52.2594C98.7792 51.8135 99.1453 51.5535 99.547 51.7374C99.869 51.8848 99.8183 52.1683 99.8183 52.5457C99.8171 54.6485 99.8183 56.7509 99.8221 58.853C99.823 59.5664 98.7604 59.6115 98.7801 58.7113C98.7889 58.2857 98.7885 57.4815 98.7792 56.2987C98.7785 56.2562 98.7607 56.2471 98.7257 56.2715Z" fill="#777676"/>
<path d="M102.362 52.7753L102.365 54.9785C102.365 54.9917 102.37 55.0044 102.38 55.0137C102.389 55.023 102.402 55.0283 102.415 55.0283C103.298 55.0258 104.185 55.0248 105.075 55.0255C105.257 55.0255 105.389 55.0483 105.471 55.094C105.806 55.2799 105.748 55.8638 105.418 56.0027C105.328 56.0402 105.155 56.059 104.897 56.059C104.062 56.0596 103.229 56.0596 102.398 56.059C102.393 56.059 102.388 56.06 102.383 56.0619C102.379 56.0639 102.374 56.0667 102.371 56.0703C102.367 56.0739 102.364 56.0781 102.362 56.0828C102.36 56.0874 102.359 56.0924 102.359 56.0975L102.364 58.3138C102.365 58.3451 102.381 58.3608 102.412 58.3608C103.674 58.3639 104.933 58.3639 106.188 58.3608C106.358 58.3601 106.483 58.3805 106.563 58.4218C106.895 58.5936 106.871 59.1578 106.566 59.3173C106.467 59.3693 106.293 59.3952 106.045 59.3952C104.656 59.3946 103.266 59.394 101.877 59.3934C101.505 59.3934 101.32 59.1981 101.32 58.8076C101.325 56.6016 101.326 54.3956 101.323 52.1896C101.322 51.7653 101.636 51.6836 102.009 51.6836C103.465 51.6842 104.92 51.6842 106.374 51.6836C106.927 51.6836 107.032 52.7171 106.175 52.7218C104.923 52.7293 103.671 52.7287 102.419 52.72C102.381 52.7193 102.362 52.7378 102.362 52.7753Z" fill="#777676"/>
<path d="M113.881 53.2856C112.73 52.3976 111.142 52.5966 110.216 53.5062C108.681 55.0148 109.273 57.4883 111.263 58.198C112.156 58.5166 113.046 58.3651 113.932 57.7437C114.496 57.3466 115.119 58.1398 114.498 58.612C113.829 59.122 113.065 59.3827 112.205 59.3939C108.969 59.4371 107.106 55.6419 109.154 53.1308C110.049 52.0337 111.206 51.5562 112.625 51.6983C113.348 51.7696 113.861 52.0522 114.479 52.4267C115.156 52.8369 114.589 53.832 113.881 53.2856Z" fill="#777676"/>
<path d="M118.608 52.719C118.116 52.7353 117.619 52.7359 117.116 52.7209C116.852 52.7124 116.608 52.7725 116.405 52.5604C116.047 52.1896 116.321 51.6845 116.822 51.6845C118.435 51.6839 120.047 51.6836 121.659 51.6836C122.151 51.6827 122.262 52.413 121.856 52.6458C121.768 52.6965 121.633 52.7221 121.45 52.7228C120.887 52.7253 120.327 52.7228 119.771 52.7153C119.76 52.7151 119.75 52.7171 119.74 52.7211C119.73 52.725 119.722 52.7309 119.714 52.7383C119.706 52.7457 119.701 52.7546 119.696 52.7643C119.692 52.774 119.69 52.7845 119.69 52.795C119.689 54.7463 119.691 56.7033 119.695 58.6659C119.696 58.8886 119.677 59.0435 119.638 59.1305C119.49 59.46 118.932 59.475 118.743 59.1643C118.684 59.0673 118.655 58.9174 118.655 58.7147C118.654 56.7358 118.654 54.7526 118.655 52.765C118.655 52.7337 118.639 52.7184 118.608 52.719Z" fill="#777676"/>
<path d="M127.227 54.9719C128.907 56.1106 128.691 58.6471 126.7 59.2751C126.022 59.4891 124.992 59.3915 124.197 59.3962C123.719 59.399 123.61 59.0761 123.61 58.6461C123.609 56.4939 123.609 54.3417 123.61 52.1895C123.61 51.7568 123.976 51.6817 124.352 51.6836C125.354 51.6864 126.499 51.5005 127.184 52.4186C127.779 53.2178 127.789 54.046 127.213 54.9034C127.195 54.9309 127.199 54.9538 127.227 54.9719ZM124.642 52.796L124.646 54.5683C124.646 54.5899 124.655 54.6107 124.67 54.626C124.685 54.6413 124.706 54.6499 124.728 54.6499L125.561 54.6481C125.83 54.6475 126.087 54.5462 126.277 54.3663C126.467 54.1864 126.573 53.9426 126.572 53.6887V53.668C126.572 53.5423 126.546 53.4178 126.495 53.3017C126.444 53.1857 126.369 53.0802 126.275 52.9915C126.18 52.9028 126.068 52.8324 125.945 52.7846C125.822 52.7367 125.691 52.7122 125.558 52.7124L124.724 52.7143C124.702 52.7143 124.682 52.7229 124.666 52.7382C124.651 52.7535 124.642 52.7743 124.642 52.796ZM124.642 55.7652L124.632 58.2772C124.632 58.3003 124.641 58.3226 124.658 58.3389C124.674 58.3553 124.696 58.3645 124.719 58.3645L125.907 58.3692C126.092 58.3698 126.275 58.336 126.445 58.2697C126.616 58.2033 126.772 58.1057 126.903 57.9825C127.034 57.8592 127.138 57.7127 127.209 57.5513C127.28 57.3899 127.317 57.2168 127.318 57.0418V57.0193C127.319 56.6661 127.172 56.3268 126.909 56.0761C126.646 55.8254 126.289 55.6839 125.916 55.6825L124.729 55.6779C124.706 55.6779 124.683 55.6871 124.667 55.7034C124.651 55.7198 124.642 55.742 124.642 55.7652Z" fill="#777676"/>
<path d="M137.573 55.5326C137.573 56.5581 137.166 57.5416 136.441 58.2668C135.715 58.9919 134.732 59.3993 133.706 59.3993C132.681 59.3993 131.697 58.9919 130.972 58.2668C130.247 57.5416 129.84 56.5581 129.84 55.5326C129.84 54.5072 130.247 53.5237 130.972 52.7985C131.697 52.0734 132.681 51.666 133.706 51.666C134.732 51.666 135.715 52.0734 136.441 52.7985C137.166 53.5237 137.573 54.5072 137.573 55.5326ZM136.527 55.5326C136.527 54.7847 136.23 54.0675 135.701 53.5386C135.173 53.0098 134.455 52.7127 133.707 52.7127C132.96 52.7127 132.242 53.0098 131.713 53.5386C131.185 54.0675 130.887 54.7847 130.887 55.5326C130.887 56.2805 131.185 56.9978 131.713 57.5266C132.242 58.0555 132.96 58.3526 133.707 58.3526C134.455 58.3526 135.173 58.0555 135.701 57.5266C136.23 56.9978 136.527 56.2805 136.527 55.5326Z" fill="#777676"/>
<path d="M150.453 56.7886L148.11 56.7895C148.096 56.7896 148.082 56.7939 148.071 56.802C148.059 56.81 148.051 56.8214 148.046 56.8346C147.775 57.5461 147.501 58.2449 147.224 58.9308C147.15 59.116 147.069 59.2415 146.981 59.3072C146.672 59.5391 146.159 59.2847 146.168 58.8989C146.17 58.8087 146.216 58.6488 146.305 58.4192C147.141 56.2657 147.977 54.1129 148.814 51.9607C148.935 51.65 149.408 51.5965 149.624 51.7936C149.696 51.8593 149.773 51.9961 149.854 52.2039C150.695 54.3686 151.536 56.5329 152.376 58.697C152.521 59.0725 152.161 59.4499 151.785 59.3823C151.489 59.3297 151.402 59.0847 151.301 58.8294C151.041 58.166 150.783 57.502 150.525 56.8374C150.519 56.8231 150.509 56.8108 150.497 56.802C150.484 56.7933 150.469 56.7887 150.453 56.7886ZM148.485 55.7128C148.483 55.7172 148.483 55.722 148.483 55.7266C148.484 55.7313 148.485 55.7358 148.488 55.7397C148.491 55.7436 148.494 55.7467 148.499 55.7489C148.503 55.7511 148.507 55.7522 148.512 55.7522H150.061C150.066 55.7522 150.07 55.7511 150.075 55.7489C150.079 55.7467 150.082 55.7436 150.085 55.7397C150.088 55.7358 150.089 55.7313 150.09 55.7266C150.09 55.722 150.09 55.7172 150.088 55.7128L149.314 53.7105C149.312 53.705 149.308 53.7002 149.303 53.6969C149.298 53.6935 149.292 53.6917 149.287 53.6917C149.281 53.6917 149.275 53.6935 149.27 53.6969C149.265 53.7002 149.261 53.705 149.259 53.7105L148.485 55.7128Z" fill="#777676"/>
<path d="M157.529 54.9703C159.218 56.1081 158.979 58.668 156.983 59.281C156.297 59.4912 155.265 59.3908 154.471 59.3955C153.998 59.3983 153.917 59.0538 153.917 58.6417C153.919 56.4982 153.918 54.3554 153.914 52.2133C153.913 51.7768 154.22 51.6838 154.609 51.6838C155.24 51.6829 156.075 51.5918 156.641 51.8087C157.873 52.279 158.318 53.8119 157.517 54.8952C157.495 54.9246 157.499 54.9497 157.529 54.9703ZM154.957 52.784V54.5807C154.957 54.5989 154.964 54.6163 154.977 54.6292C154.99 54.6421 155.007 54.6493 155.026 54.6493H155.865C156.132 54.6493 156.389 54.5482 156.578 54.3683C156.768 54.1884 156.874 53.9443 156.874 53.6899V53.6749C156.874 53.4204 156.768 53.1764 156.578 52.9965C156.389 52.8166 156.132 52.7155 155.865 52.7155H155.026C155.007 52.7155 154.99 52.7227 154.977 52.7356C154.964 52.7484 154.957 52.7658 154.957 52.784ZM154.952 55.7438L154.949 58.299C154.949 58.3155 154.955 58.3312 154.967 58.3428C154.978 58.3545 154.994 58.361 155.01 58.361L156.238 58.3629C156.419 58.3631 156.598 58.3292 156.764 58.2631C156.931 58.197 157.083 58.0999 157.211 57.9774C157.339 57.8549 157.44 57.7095 157.509 57.5493C157.579 57.3891 157.614 57.2174 157.615 57.044V57.0064C157.615 56.6561 157.471 56.32 157.213 56.072C156.956 55.8239 156.607 55.6843 156.242 55.6837L155.014 55.6819C154.998 55.6819 154.982 55.6884 154.97 55.7C154.959 55.7116 154.952 55.7274 154.952 55.7438Z" fill="#777676"/>
<path d="M161.495 52.7274C160.904 52.718 160.314 52.7152 159.725 52.7189C158.983 52.7246 158.933 51.6845 159.716 51.6835C161.253 51.6835 162.79 51.6829 164.326 51.6816C164.539 51.6816 164.69 51.7057 164.781 51.7539C165.103 51.9267 165.079 52.4777 164.766 52.6476C164.675 52.697 164.526 52.7221 164.318 52.7227C163.76 52.7246 163.208 52.7221 162.663 52.7152C162.655 52.7151 162.647 52.7165 162.639 52.7196C162.632 52.7226 162.625 52.727 162.619 52.7327C162.613 52.7384 162.609 52.7452 162.606 52.7526C162.602 52.7601 162.601 52.7681 162.601 52.7762C162.602 54.6749 162.602 56.5646 162.602 58.4452C162.601 58.7744 162.598 58.9521 162.592 58.9784C162.452 59.5998 161.557 59.5191 161.562 58.7831C161.574 56.783 161.571 54.7832 161.551 52.7837C161.551 52.7468 161.533 52.728 161.495 52.7274Z" fill="#777676"/>
<path d="M173.866 55.5326C173.866 56.5581 173.459 57.5416 172.734 58.2668C172.008 58.9919 171.025 59.3993 169.999 59.3993C168.974 59.3993 167.99 58.9919 167.265 58.2668C166.54 57.5416 166.133 56.5581 166.133 55.5326C166.133 54.5072 166.54 53.5237 167.265 52.7985C167.99 52.0734 168.974 51.666 169.999 51.666C171.025 51.666 172.008 52.0734 172.734 52.7985C173.459 53.5237 173.866 54.5072 173.866 55.5326ZM172.819 55.5326C172.819 54.7847 172.522 54.0675 171.993 53.5386C171.465 53.0098 170.747 52.7127 169.999 52.7127C169.252 52.7127 168.534 53.0098 168.005 53.5386C167.477 54.0675 167.179 54.7847 167.179 55.5326C167.179 56.2805 167.477 56.9978 168.005 57.5266C168.534 58.0555 169.252 58.3526 169.999 58.3526C170.747 58.3526 171.465 58.0555 171.993 57.5266C172.522 56.9978 172.819 56.2805 172.819 55.5326Z" fill="#777676"/>
<path d="M176.464 56.1052C176.461 57.4513 176.462 58.3362 176.466 58.7599C176.474 59.5747 175.427 59.6085 175.427 58.835C175.427 56.6722 175.426 54.5096 175.426 52.3474C175.426 51.9748 175.522 51.6622 175.945 51.6762C176.282 51.6875 176.451 51.8746 176.454 52.2376C176.461 53.1513 176.465 54.0525 176.468 54.9411C176.468 54.9975 176.496 55.0256 176.552 55.0256H179.807C179.815 55.0256 179.824 55.0239 179.832 55.0206C179.84 55.0173 179.847 55.0124 179.853 55.0063C179.859 55.0002 179.864 54.9929 179.867 54.985C179.87 54.977 179.872 54.9685 179.872 54.9599C179.869 54.1007 179.868 53.247 179.868 52.3991C179.868 52.1481 179.904 51.9685 179.978 51.8602C180.16 51.5899 180.707 51.6237 180.859 51.9541C180.892 52.0254 180.909 52.1306 180.909 52.2695C180.908 54.4805 180.907 56.6912 180.908 58.9016C180.908 59.4114 180.149 59.5878 179.921 59.1072C179.883 59.0258 179.864 58.9019 179.866 58.7355C179.876 57.8599 179.876 56.9847 179.866 56.1098C179.866 56.0748 179.848 56.0573 179.813 56.0573L176.511 56.0582C176.48 56.0582 176.465 56.0739 176.464 56.1052Z" fill="#777676"/>
<path d="M190.143 55.5326C190.143 56.5581 189.736 57.5416 189.011 58.2668C188.286 58.9919 187.302 59.3993 186.277 59.3993C185.251 59.3993 184.268 58.9919 183.543 58.2668C182.818 57.5416 182.41 56.5581 182.41 55.5326C182.41 54.5072 182.818 53.5237 183.543 52.7985C184.268 52.0734 185.251 51.666 186.277 51.666C187.302 51.666 188.286 52.0734 189.011 52.7985C189.736 53.5237 190.143 54.5072 190.143 55.5326ZM189.098 55.5326C189.098 55.1623 189.025 54.7956 188.883 54.4535C188.741 54.1114 188.534 53.8005 188.272 53.5386C188.01 53.2768 187.699 53.0691 187.357 52.9274C187.015 52.7856 186.648 52.7127 186.278 52.7127C185.53 52.7127 184.813 53.0098 184.284 53.5386C183.755 54.0675 183.458 54.7847 183.458 55.5326C183.458 56.2805 183.755 56.9978 184.284 57.5266C184.813 58.0555 185.53 58.3526 186.278 58.3526C186.648 58.3526 187.015 58.2796 187.357 58.1379C187.699 57.9962 188.01 57.7885 188.272 57.5266C188.534 57.2648 188.741 56.9539 188.883 56.6118C189.025 56.2697 189.098 55.903 189.098 55.5326Z" fill="#777676"/>
<path d="M197.552 54.2916C197.147 55.8555 196.705 57.4454 196.226 59.0613C196.077 59.5673 195.364 59.4574 195.23 58.9712C194.792 57.3835 194.36 55.8196 193.935 54.2794C193.91 54.1868 193.884 54.1868 193.859 54.2794C193.459 55.7282 193.058 57.1694 192.658 58.6032C192.578 58.8858 192.563 59.1702 192.279 59.3213C192.107 59.4127 191.939 59.4108 191.775 59.3157C191.497 59.1533 191.491 58.8923 191.574 58.591C192.175 56.4169 192.776 54.2437 193.378 52.0715C193.519 51.5571 194.269 51.5458 194.408 52.0462C194.851 53.6395 195.29 55.226 195.726 56.8055C195.728 56.8118 195.732 56.8174 195.738 56.8213C195.743 56.8252 195.749 56.8273 195.756 56.8273C195.763 56.8273 195.769 56.8252 195.774 56.8213C195.78 56.8174 195.784 56.8118 195.786 56.8055C196.212 55.2222 196.649 53.6439 197.095 52.0706C197.258 51.4933 197.984 51.5712 198.143 52.141C198.739 54.2888 199.332 56.4376 199.921 58.5872C200.01 58.9139 199.975 59.2753 199.62 59.373C199.282 59.4656 199.062 59.3288 198.958 58.9627C198.521 57.4176 198.082 55.8606 197.641 54.2916C197.611 54.1815 197.581 54.1815 197.552 54.2916Z" fill="#777676"/>
<path d="M202.6 56.1053C202.595 57.0058 202.596 57.9061 202.602 58.806C202.603 59.1746 202.441 59.3705 202.113 59.3936C201.668 59.4246 201.559 59.0679 201.56 58.6802C201.562 56.5199 201.562 54.3599 201.559 52.2002C201.558 51.6444 202.327 51.4708 202.541 51.9542C202.58 52.0393 202.599 52.1817 202.599 52.3813C202.599 53.2393 202.6 54.0961 202.601 54.9516C202.601 54.9997 202.625 55.0238 202.673 55.0238L205.934 55.0248C205.954 55.0248 205.973 55.017 205.986 55.0031C206 54.9892 206.008 54.9703 206.008 54.9506C206.003 54.067 206.003 53.173 206.007 52.2687C206.008 52.121 206.03 52.0087 206.072 51.9317C206.233 51.6341 206.711 51.5919 206.914 51.8284C206.997 51.9254 207.039 52.0819 207.039 52.2978C207.039 54.4287 207.039 56.559 207.04 58.6886C207.04 58.9045 207.018 59.0572 206.974 59.1467C206.804 59.4969 206.201 59.4518 206.055 59.096C206.018 59.004 206 58.8388 206.003 58.6004C206.013 57.7737 206.011 56.9464 205.998 56.1184C205.997 56.0783 205.977 56.0583 205.937 56.0583L202.651 56.0546C202.638 56.0546 202.625 56.0599 202.615 56.0694C202.605 56.0788 202.6 56.0917 202.6 56.1053Z" fill="#777676"/>
<path d="M216.286 55.5336C216.286 56.5593 215.878 57.543 215.153 58.2684C214.428 58.9937 213.444 59.4011 212.418 59.4011C211.393 59.4011 210.409 58.9937 209.684 58.2684C208.958 57.543 208.551 56.5593 208.551 55.5336C208.551 54.5078 208.958 53.5241 209.684 52.7988C210.409 52.0735 211.393 51.666 212.418 51.666C213.444 51.666 214.428 52.0735 215.153 52.7988C215.878 53.5241 216.286 54.5078 216.286 55.5336ZM215.239 55.5336C215.239 54.7857 214.942 54.0684 214.413 53.5396C213.884 53.0107 213.167 52.7136 212.419 52.7136C211.671 52.7136 210.954 53.0107 210.425 53.5396C209.896 54.0684 209.599 54.7857 209.599 55.5336C209.599 56.2815 209.896 56.9987 210.425 57.5276C210.954 58.0564 211.671 58.3535 212.419 58.3535C213.167 58.3535 213.884 58.0564 214.413 57.5276C214.942 56.9987 215.239 56.2815 215.239 55.5336Z" fill="#777676"/>
<path d="M219.66 53.5817C218.275 55.0959 218.798 57.4258 220.717 58.1721C221.636 58.5294 222.552 58.3846 223.467 57.7375C224.035 57.3357 224.667 58.1674 223.97 58.6602C221.457 60.4391 218.017 58.8189 217.846 55.723C217.66 52.3642 221.604 50.4022 224.209 52.5998C224.231 52.6182 224.248 52.6426 224.257 52.6702C224.396 53.0739 224.202 53.4756 223.774 53.4484C223.665 53.4415 223.519 53.3708 223.334 53.2363C222.212 52.4186 220.563 52.5951 219.66 53.5817Z" fill="#777676"/>
<path d="M228.129 52.7302C227.308 52.7052 226.754 52.7024 226.468 52.7218C226.073 52.748 225.757 52.5593 225.787 52.136C225.812 51.7905 226.074 51.6816 226.4 51.6816C227.929 51.6835 229.458 51.6835 230.986 51.6816C231.338 51.6816 231.657 51.799 231.649 52.1895C231.642 52.5506 231.44 52.7299 231.044 52.7274C230.456 52.7243 229.876 52.7199 229.303 52.7142C229.293 52.7141 229.284 52.7159 229.275 52.7194C229.266 52.7229 229.258 52.7282 229.252 52.7348C229.245 52.7414 229.24 52.7493 229.236 52.7581C229.232 52.7668 229.23 52.7761 229.23 52.7856C229.238 54.8126 229.24 56.8353 229.237 58.8535C229.236 59.3952 228.548 59.5979 228.278 59.1567C228.22 59.0616 228.192 58.9167 228.194 58.7221C228.216 56.7433 228.213 54.7651 228.186 52.7875C228.185 52.7505 228.166 52.7315 228.129 52.7302Z" fill="#777676"/>
<path d="M234.25 55.02C234.923 55.0359 235.811 54.9327 236.393 55.1242C238.386 55.7785 238.367 58.6331 236.376 59.2762C236.117 59.36 235.721 59.3998 235.186 59.3954C234.698 59.3916 234.21 59.3894 233.722 59.3888C233.251 59.3888 233.145 59.1091 233.147 58.6791C233.155 56.5864 233.154 54.4946 233.145 52.4037C233.143 52.0057 233.26 51.6227 233.726 51.6818C234.207 51.7429 234.19 52.1587 234.189 52.5971C234.188 53.3838 234.188 54.1707 234.189 54.958C234.189 54.9743 234.196 54.9899 234.207 55.0015C234.219 55.0131 234.234 55.0197 234.25 55.02ZM234.178 56.1474V58.2764C234.178 58.3003 234.188 58.3232 234.204 58.3401C234.221 58.357 234.244 58.3665 234.268 58.3665H235.659C235.974 58.3665 236.275 58.2465 236.497 58.0327C236.719 57.819 236.844 57.5292 236.844 57.2269V57.1969C236.844 56.8946 236.719 56.6048 236.497 56.3911C236.275 56.1773 235.974 56.0573 235.659 56.0573H234.268C234.244 56.0573 234.221 56.0668 234.204 56.0837C234.188 56.1006 234.178 56.1235 234.178 56.1474Z" fill="#777676"/>
</svg>
