<svg width="24" height="28" viewBox="0 0 24 28" fill="none" xmlns="http://www.w3.org/2000/svg">
<path d="M11.6247 27.5C12.3099 27.5 12.9669 27.2366 13.4514 26.7678C13.9359 26.2989 14.2081 25.663 14.2081 25H9.04139C9.04139 25.663 9.31356 26.2989 9.79803 26.7678C10.2825 27.2366 10.9396 27.5 11.6247 27.5ZM23.1516 21.7287C23.2493 21.5003 23.2749 21.2489 23.225 21.0063C23.1751 20.7638 23.052 20.5411 22.8713 20.3662L20.6664 18.2325V11.25C20.6638 9.14769 19.8792 7.11655 18.4561 5.52816C17.033 3.93977 15.0665 2.90033 12.9164 2.6V1.25C12.9164 0.918479 12.7803 0.600537 12.5381 0.366116C12.2958 0.131696 11.9673 0 11.6247 0C11.2822 0 10.9536 0.131696 10.7114 0.366116C10.4691 0.600537 10.3331 0.918479 10.3331 1.25V2.6C8.18295 2.90033 6.21646 3.93977 4.79333 5.52816C3.37021 7.11655 2.5856 9.14769 2.58306 11.25V18.2325L0.378183 20.3662C0.197596 20.5411 0.0746209 20.7638 0.0248045 21.0062C-0.0250119 21.2487 0.000566978 21.4999 0.0983074 21.7283C0.196048 21.9567 0.361561 22.1519 0.573924 22.2893C0.786287 22.4266 1.03596 22.4999 1.29139 22.5H21.9581C22.2135 22.5001 22.4632 22.4268 22.6757 22.2895C22.8881 22.1523 23.0537 21.9571 23.1516 21.7287ZM4.40947 20L4.78793 19.6338C5.03018 19.3994 5.16632 19.0815 5.16639 18.75V11.25C5.16639 9.5924 5.84682 8.00268 7.05799 6.83058C8.26917 5.65848 9.91187 5 11.6247 5C13.3376 5 14.9803 5.65848 16.1915 6.83058C17.4026 8.00268 18.0831 9.5924 18.0831 11.25V18.75C18.0831 19.0815 18.2193 19.3994 18.4615 19.6338L18.84 20H4.40947Z" fill="white"/>
</svg>
