<svg width="91" height="60" viewBox="0 0 91 60" fill="none" xmlns="http://www.w3.org/2000/svg">
<path fill-rule="evenodd" clip-rule="evenodd" d="M20 0C8.95431 0 0 8.9543 0 20V40C0 51.0457 8.9543 60 20 60H71C82.0457 60 91 51.0457 91 40V20C91 8.95431 82.0457 0 71 0H20ZM45.5 47C43.6774 47 42.2 45.5226 42.2 43.7V33.8H32.3C30.4774 33.8 29 32.3226 29 30.5C29 28.6774 30.4774 27.2 32.3 27.2H42.2V17.3C42.2 15.4774 43.6774 14 45.5 14C47.3226 14 48.8 15.4774 48.8 17.3V27.2H58.7C60.5226 27.2 62 28.6774 62 30.5C62 32.3226 60.5226 33.8 58.7 33.8H48.8V43.7C48.8 45.5226 47.3226 47 45.5 47Z" fill="white"/>
</svg>
