<svg width="44" height="50" viewBox="0 0 44 50" fill="none" xmlns="http://www.w3.org/2000/svg">
<path d="M21.6374 17.821C21.7672 17.416 21.9056 17.0135 22.0527 16.6136C22.2636 16.0385 22.402 15.6382 22.4679 15.4126C23.5926 11.5706 23.1387 7.38003 21.5 3.78034C21.7274 2.96137 21.9707 2.15455 22.2299 1.35988C22.3725 0.922041 22.4957 0.472267 22.5993 0.0105563C22.5994 0.00767302 22.6006 0.00494155 22.6025 0.00296275C22.6045 0.000983943 22.6072 -8.0095e-05 22.6099 4.70655e-06C22.6126 8.9508e-05 22.6152 0.0013162 22.617 0.00341493C22.6189 0.00551366 22.6199 0.00831251 22.6198 0.0111958C23.3065 3.78631 24.1065 7.53606 25.0198 11.2604C25.1604 11.8326 25.256 12.2468 25.3067 12.503C25.9847 15.9166 25.8907 19.8174 24.3104 22.965C23.9512 23.6812 23.4082 24.4832 22.6819 24.8144C22.6762 24.8169 22.67 24.8178 22.6639 24.817C22.6578 24.8162 22.652 24.8137 22.6471 24.8097C22.6423 24.8058 22.6384 24.8005 22.6361 24.7945C22.6337 24.7885 22.6329 24.7819 22.6337 24.7754C22.9392 22.4547 22.43 19.9639 21.6977 17.7781C21.6962 17.7743 21.6934 17.7711 21.6898 17.7695C21.6862 17.7678 21.6821 17.7677 21.6784 17.7692C21.6639 17.7751 21.6503 17.7924 21.6374 17.821Z" fill="#4C9BBB" fill-opacity="0.78"/>
<path d="M21.4997 3.78014C23.1384 7.37983 23.5923 11.5704 22.4676 15.4124C22.4017 15.638 22.2633 16.0383 22.0524 16.6134C21.9053 17.0133 21.7669 17.4158 21.6371 17.8208C21.2783 18.8874 21.0272 19.9758 20.8837 21.086C20.7451 22.1571 20.8301 23.4374 21.5533 24.2444C21.7685 24.4849 22.0867 24.7145 22.3585 24.9037C22.4759 24.9856 22.4644 25.0216 22.3242 25.0118C18.8454 24.7714 17.5863 21.0329 17.467 17.9058C17.3826 15.6876 17.6828 13.5242 18.3674 11.4156C18.9898 9.49845 19.6146 7.58148 20.2418 5.66472C20.4721 4.96171 20.6874 4.25358 20.8879 3.54034C20.9452 3.33442 20.982 3.12083 20.9964 2.92387C21.0013 2.85651 21.0191 2.85246 21.0501 2.91172L21.4997 3.78014Z" fill="#86D0EF"/>
<path d="M15.5396 30.2872C15.3317 29.5959 14.788 29.571 14.2076 29.5882C13.7279 29.603 13.3271 29.7814 13.1909 30.2866C13.1415 30.4703 13.1437 30.7157 13.1975 31.0226C13.3514 31.8996 13.7128 32.6753 14.2818 33.3497C14.3939 33.4821 14.4523 33.736 14.4523 33.9355C14.4527 35.2042 14.4535 36.4728 14.4548 37.7411C14.4548 38.048 14.4258 38.2704 14.368 38.4081C14.1715 38.8749 13.5766 39.0655 13.1463 38.8327C13.0675 38.7901 12.9138 38.6694 12.6852 38.4707C11.4859 37.4277 10.4818 36.1436 9.75851 34.6875C8.44763 32.0471 7.75995 28.9289 7.97813 25.9272C8.0161 25.4009 8.08722 25.0242 8.52418 24.8093C8.6399 24.7526 8.80664 24.7243 9.02442 24.7243C11.7655 24.7251 14.5062 24.7251 17.2465 24.7243C17.5189 24.7243 17.7101 24.7467 17.8202 24.7914C18.0227 24.8733 18.17 25.0238 18.262 25.2429C19.3417 27.8158 19.9458 30.5445 20.0743 33.429C20.0872 33.7228 20.0952 34.1489 20.0984 34.7074C20.1258 39.4767 20.134 44.2462 20.1232 49.0159C20.1226 49.2794 19.9647 49.759 19.6368 49.7277C15.2977 49.3116 11.4459 47.6866 8.08119 44.8528C6.09589 43.1812 4.30346 41.0402 3.00163 38.6831C0.432515 34.0335 -0.487408 29.0204 0.24186 23.6436C0.573748 21.1969 1.29719 18.838 2.41219 16.567C4.70607 11.8949 8.46089 8.29071 12.9908 6.16505C13.1808 6.07594 13.3384 6.03523 13.4633 6.0429C13.922 6.07168 14.0365 6.43171 14.0901 6.88C14.1998 7.79532 14.3107 8.71043 14.4228 9.62532C14.4694 10.0056 14.4759 10.2701 14.4421 10.4189C14.3762 10.7105 14.2076 10.9305 13.9364 11.0789C10.1233 13.1679 7.39612 16.3176 5.75477 20.528C5.48536 21.2186 5.29973 21.8965 5.11771 22.6639C4.33219 25.9756 4.42219 29.254 5.38772 32.4992C6.80527 37.264 10.1412 41.3421 14.3589 43.4498C14.7651 43.6525 15.3082 43.3942 15.4884 42.9593C15.5374 42.8404 15.5619 42.643 15.5619 42.3672C15.5619 38.3912 15.5619 34.4151 15.5619 30.4388C15.5619 30.3872 15.5545 30.3367 15.5396 30.2872Z" fill="white"/>
<path d="M36.0436 27.9932C35.8949 30.1815 35.376 32.2543 34.4868 34.2115C33.7053 35.9322 32.604 37.3921 31.1828 38.5914C30.9791 38.7636 30.8107 38.8685 30.6777 38.906C30.2751 39.0199 29.793 38.7954 29.6302 38.3817C29.5824 38.2606 29.5585 38.057 29.5585 37.7709C29.5581 36.4459 29.5583 35.1211 29.5591 33.7965C29.5591 33.6635 29.6646 33.4486 29.7592 33.3233C30.3047 32.5994 30.6434 31.9516 30.8103 30.9981C30.8628 30.6976 30.8977 30.4558 30.7808 30.1777C30.5325 29.5848 30.0136 29.5682 29.4741 29.5912C29.0474 29.6091 28.7135 29.7179 28.5297 30.1265C28.4767 30.2454 28.4501 30.4158 28.4501 30.6374C28.4501 34.5775 28.4499 38.5172 28.4495 42.4565C28.4495 42.6645 28.4751 42.8299 28.5261 42.9527C28.7208 43.4195 29.2168 43.6504 29.6778 43.4291C29.8864 43.3294 30.0911 43.2222 30.292 43.1075C37.0718 39.2373 40.7296 31.0832 38.9787 23.0531C38.7706 22.0981 38.5681 21.3489 38.3712 20.8053C38.2599 20.4975 38.0628 20.0322 37.78 19.4093C36.1707 15.8601 33.5864 13.0515 30.3083 11.2123C30.0302 11.0563 29.8492 10.9243 29.7652 10.8165C29.5338 10.521 29.5205 10.2173 29.5676 9.81249C29.6845 8.80124 29.8066 7.79063 29.934 6.78067C29.9852 6.37204 30.1576 6.04973 30.568 6.04206C30.6898 6.03993 30.8571 6.08895 31.0701 6.18914C34.8599 7.97417 37.9318 10.6639 40.286 14.2582C44.3271 20.4274 45.0871 28.5284 42.4925 35.5046C40.7175 40.2771 37.4033 44.2125 33.2537 46.782C30.5753 48.4408 27.3641 49.5222 24.2584 49.7281C24.2394 49.7294 24.2205 49.723 24.2053 49.7102C23.9908 49.5286 23.8833 49.292 23.8829 49.0004C23.866 41.7281 23.8762 36.7454 23.9136 34.0523C23.9542 31.1235 24.5336 28.266 25.6518 25.48C25.8754 24.9236 26.0906 24.7247 26.6523 24.7247C29.4544 24.7252 32.2562 24.7256 35.0576 24.726C35.5783 24.726 35.9538 25.063 36.0122 25.6258C36.09 26.3714 36.0966 27.2155 36.0436 27.9932Z" fill="white"/>
</svg>
