<svg width="100" height="106" viewBox="0 0 100 106" fill="none" xmlns="http://www.w3.org/2000/svg">
<mask id="mask0_2968_8431" style="mask-type:luminance" maskUnits="userSpaceOnUse" x="0" y="0" width="100" height="106">
<path d="M98 103.806V2H2V103.806H98Z" fill="white" stroke="white" stroke-width="4"/>
</mask>
<g mask="url(#mask0_2968_8431)">
<path d="M66.776 79.6824L79.6314 73.2611L48.9062 69.1508L52.7908 101.66L58.9197 87.9945L73.8008 103.739L81.6566 95.4271L66.776 79.6824Z" stroke="white" stroke-width="4" stroke-miterlimit="10" stroke-linecap="round" stroke-linejoin="round"/>
<path d="M38.3307 87.9619H51.1549L48.9062 69.1503L79.6326 73.2601L66.7768 79.682L74.6023 87.9619H83.7844C87.1805 87.9619 89.9336 85.049 89.9336 81.4557V48.4353C89.9336 44.8419 87.1805 41.9289 83.7844 41.9289H16.2156C12.8195 41.9289 10.0664 44.8419 10.0664 48.4353V81.4557C10.0664 85.049 12.8195 87.9619 16.2156 87.9619H21.2187" stroke="white" stroke-width="4" stroke-miterlimit="10" stroke-linecap="round" stroke-linejoin="round"/>
<path d="M50.9062 58.3418V52.3609" stroke="white" stroke-width="4" stroke-miterlimit="10" stroke-linecap="round" stroke-linejoin="round"/>
<path d="M40.3486 73.8398H34.4531" stroke="white" stroke-width="4" stroke-miterlimit="10" stroke-linecap="round" stroke-linejoin="round"/>
<path d="M42.2572 62.8145L37.5469 58.5676" stroke="white" stroke-width="4" stroke-miterlimit="10" stroke-linecap="round" stroke-linejoin="round"/>
<path d="M70.1221 16.0032C69.4463 15.9042 68.757 15.8493 68.0555 15.8493C64.5723 15.8493 61.3686 17.108 58.8289 19.2204C59.7002 22.8748 59.751 26.9051 58.7781 30.5471C58.0887 33.5628 56.6605 36.57 54.7812 38.9554C55.3034 40.0201 55.9392 41.0181 56.6762 41.9297H79.4385C81.6656 39.1684 83.0094 35.5843 83.0094 31.6695C83.0094 30.2159 82.8205 28.8098 82.4734 27.4728" stroke="white" stroke-width="4" stroke-miterlimit="10" stroke-linecap="round" stroke-linejoin="round"/>
<path d="M59.4791 24.7805C59.4791 31.3089 56.7535 37.6549 52.083 41.9297H23.9428C19.274 37.6493 16.5469 31.3128 16.5469 24.7805C16.5469 15.3384 22.2746 6.66901 30.66 3.43471C33.0119 2.5273 35.5107 2.06709 38.0139 2.06709C46.8496 2.06709 54.983 8.01306 58.1029 16.7627C59.0145 19.3192 59.4791 22.0486 59.4791 24.7805Z" stroke="white" stroke-width="4" stroke-miterlimit="10" stroke-linecap="round" stroke-linejoin="round"/>
</g>
</svg>
