<svg width="106" height="114" viewBox="0 0 106 114" fill="none" xmlns="http://www.w3.org/2000/svg">
<path d="M72.3715 46.6563C72.3531 46.5982 72.3313 46.5415 72.3061 46.4864C72.2768 46.3912 72.2408 46.2984 72.1984 46.209C72.1609 46.1486 72.1202 46.0907 72.0765 46.0353C72.0303 45.9602 71.9789 45.8889 71.9228 45.822C71.8703 45.7724 71.8155 45.7258 71.7585 45.6823C71.7023 45.6278 71.6433 45.5768 71.5818 45.5294L53.9151 34.2041C53.6403 34.0277 53.3258 33.9345 53.0053 33.9345C52.6847 33.9345 52.3702 34.0277 52.0955 34.2041L34.4288 45.5294C34.3635 45.5753 34.3014 45.6264 34.2433 45.6823C34.1857 45.7258 34.1303 45.7724 34.0772 45.822C34.0222 45.8888 33.9715 45.9594 33.9253 46.0334C33.8805 46.0891 33.8392 46.1476 33.8016 46.209C33.7601 46.296 33.7247 46.3862 33.6956 46.4789C33.6704 46.5374 33.648 46.5972 33.6285 46.6582C33.5872 46.8174 33.5664 46.9819 33.5667 47.1471V66.0227C33.5667 66.3484 33.6457 66.6685 33.7958 66.952C33.9459 67.2355 34.1622 67.4726 34.4235 67.6403L52.0902 78.9657L52.1096 78.9752L52.129 78.9903C52.2218 79.0417 52.3187 79.0842 52.4188 79.1167C52.4594 79.1318 52.4983 79.1564 52.5407 79.1696C52.8413 79.2576 53.1586 79.2576 53.4593 79.1696C53.5017 79.1564 53.5406 79.1318 53.5812 79.1167C53.6812 79.0841 53.7782 79.0418 53.871 78.9903L53.8904 78.9752L53.9098 78.9657L71.5765 67.6403C71.8378 67.4726 72.054 67.2355 72.2042 66.952C72.3543 66.6685 72.4333 66.3484 72.4333 66.0227V47.1471C72.4334 46.9813 72.4126 46.8162 72.3715 46.6563ZM53 38.0226L58.3989 41.4844L44.1667 50.6089L38.7677 47.1471L53 38.0226ZM51.2333 74.0128L37.1 64.9525V50.4805L51.2333 59.5408V74.0128ZM53 56.2715L47.6011 52.8098L61.8333 43.6853L67.2323 47.1471L53 56.2715ZM68.9 64.9543L54.7667 74.0146V59.5408L68.9 50.4805V64.9543ZM54.4133 0.713023C54.2416 0.490066 54.0258 0.310499 53.7815 0.187218C53.5371 0.0639364 53.2702 0 53 0C52.7298 0 52.4629 0.0639364 52.2185 0.187218C51.9741 0.310499 51.7584 0.490066 51.5867 0.713023L46.2867 8.26328L49.1133 10.5284L51.2333 7.50825V22.6088H54.7667V7.50825L56.8867 10.5284L59.7133 8.26328L54.4133 0.713023ZM56.8867 102.641L54.7667 105.662V90.561H51.2333V105.662L49.1133 102.641L46.2867 104.907L51.5867 112.457C51.7512 112.691 51.9646 112.881 52.2099 113.012C52.4552 113.144 52.7257 113.212 53 113.212C53.2743 113.212 53.5448 113.144 53.7901 113.012C54.0354 112.881 54.2488 112.691 54.4133 112.457L59.7133 104.907L56.8867 102.641ZM51.2333 26.3839H54.7667V30.159H51.2333V26.3839ZM51.2333 83.0108H54.7667V86.7859H51.2333V83.0108ZM21.2 54.6973H7.06667L9.89333 52.4323L7.77333 49.4121L0.706667 55.0748C0.487254 55.2507 0.309168 55.4786 0.186512 55.7407C0.0638563 56.0028 0 56.2919 0 56.5849C0 56.8779 0.0638563 57.1669 0.186512 57.429C0.309168 57.6911 0.487254 57.9191 0.706667 58.0949L7.77333 63.7576L9.89333 60.7375L7.06667 58.4725H21.2V54.6973ZM105.647 55.4523C105.546 55.3093 105.427 55.1822 105.293 55.0748L98.2267 49.4121L96.1067 52.4323L98.9333 54.6973H84.8V58.4725H98.9333L96.1067 60.7375L98.2267 63.7576L105.293 58.0949C105.668 57.7946 105.916 57.3474 105.982 56.8518C106.049 56.3562 105.928 55.8528 105.647 55.4523ZM24.7333 54.6973H28.2667V58.4725H24.7333V54.6973ZM77.7333 54.6973H81.2667V58.4725H77.7333V54.6973ZM31.7629 31.2255L21.7706 20.5494L25.2669 21.0817L25.7668 17.3443L17.0236 16.0023C16.7507 15.959 16.4721 15.9846 16.2101 16.0771C15.9481 16.1695 15.7101 16.3262 15.515 16.5347C15.3199 16.7431 15.1732 16.9975 15.0867 17.2774C15.0001 17.5573 14.9762 17.855 15.0167 18.1466L16.2657 27.4881L19.7637 26.9539L19.2655 23.2184L29.2578 33.8945L31.7629 31.2255ZM90.9798 95.0232L89.7308 85.6817L86.2292 86.2196L86.7274 89.9551L76.7352 79.2791L74.2371 81.9481L84.2294 92.6241L80.7367 92.0881L80.2367 95.8254L88.9799 97.1599C89.2516 97.2016 89.5287 97.1751 89.7891 97.0825C90.0496 96.9898 90.2862 96.8336 90.4803 96.6263C90.6744 96.4189 90.8206 96.166 90.9073 95.8878C90.994 95.6095 91.0188 95.3135 90.9798 95.0232ZM31.7636 36.5654L34.2621 33.8959L36.7604 36.5654L34.2621 39.2346L31.7636 36.5654ZM69.241 76.6044L71.7393 73.9349L74.2378 76.6044L71.7393 79.2739L69.241 76.6044ZM21.7636 92.6204L31.7558 81.9443L29.2648 79.2753L19.2726 89.9513L19.7708 86.2159L16.2728 85.6817L15.0167 95.0232C14.9776 95.3135 15.0025 95.6095 15.0892 95.8878C15.1759 96.166 15.3221 96.4189 15.5162 96.6263C15.7103 96.8336 15.9469 96.9898 16.2073 97.0825C16.4678 97.1751 16.7448 97.2016 17.0165 97.1599L25.7598 95.8254L25.2598 92.0881L21.7636 92.6204ZM90.4763 16.544C90.2831 16.3354 90.0466 16.1783 89.786 16.0855C89.5255 15.9927 89.2481 15.9668 88.9764 16.0098L80.2332 17.3443L80.7331 21.0817L84.2294 20.5494L74.2371 31.2255L76.7352 33.8945L86.7274 23.2184L86.2292 26.9501L89.7272 27.4881L90.9763 18.1466C91.0152 17.8563 90.9903 17.5603 90.9035 17.2822C90.8167 17.004 90.6705 16.7512 90.4763 16.544ZM31.7649 76.606L34.2634 73.9365L36.7619 76.606L34.2634 79.2755L31.7649 76.606ZM69.2414 36.5586L71.7397 33.8893L74.2382 36.5586L71.7397 39.228L69.2414 36.5586Z" fill="white"/>
</svg>
