<svg width="96" height="89" viewBox="0 0 96 89" fill="none" xmlns="http://www.w3.org/2000/svg">
<path d="M89.4416 43.7344C89.6064 42.2713 89.6892 40.8002 89.6897 39.3279C89.6897 35.6291 89.175 31.9648 88.1602 28.4367C88.05 28.0665 87.7982 27.7548 87.4594 27.5694C87.1207 27.384 86.7224 27.3398 86.3512 27.4466C85.9801 27.5533 85.6661 27.8023 85.4776 28.1394C85.2891 28.4765 85.2413 28.8744 85.3447 29.2465C86.2838 32.5111 86.76 35.9029 86.76 39.3277C86.76 40.1652 86.7271 40.9949 86.6703 41.8184C84.109 40.3838 81.1738 39.5666 78.0846 39.5666C77.8504 39.5671 77.6163 39.5721 77.3824 39.5818V36.0963C77.3824 34.6986 76.2453 33.5615 74.8477 33.5615H69.6963C69.3013 32.2341 68.7702 30.9511 68.1113 29.733L71.7531 26.091C72.232 25.6123 72.4957 24.9758 72.4957 24.2986C72.4957 23.6215 72.232 22.985 71.7533 22.5063L67.1832 17.9363C66.9484 17.7002 66.6691 17.5129 66.3614 17.3854C66.0537 17.258 65.7238 17.1928 65.3908 17.1938C65.0578 17.1928 64.728 17.258 64.4204 17.3854C64.1127 17.5128 63.8334 17.7 63.5986 17.9361L59.9566 21.5781C58.7386 20.9191 57.4556 20.388 56.1281 19.9932V14.8418C56.1281 13.4441 54.991 12.307 53.5934 12.307H47.1301C45.7324 12.307 44.5953 13.4439 44.5953 14.8418V19.9932C43.2679 20.3881 41.9849 20.9193 40.7668 21.5781L37.1248 17.9363C36.6461 17.4574 36.0096 17.1938 35.3324 17.1938C34.6553 17.1938 34.0188 17.4574 33.54 17.9361L28.9699 22.5063C28.491 22.985 28.2273 23.6215 28.2273 24.2986C28.2273 24.9758 28.491 25.6123 28.9697 26.0908L32.6117 29.733C31.9529 30.9511 31.4217 32.2341 31.0268 33.5615H25.8754C24.4777 33.5615 23.3406 34.6984 23.3406 36.0963V42.5596C23.3406 43.9572 24.4777 45.0943 25.8754 45.0943H31.0268C31.4217 46.4217 31.9529 47.7047 32.6117 48.9229L28.9699 52.5648C28.491 53.0436 28.2273 53.6801 28.2273 54.3572C28.2273 55.0344 28.491 55.6709 28.9697 56.1496L33.5398 60.7195C33.7746 60.9557 34.054 61.1429 34.3616 61.2704C34.6693 61.3979 34.9992 61.463 35.3322 61.4621C35.6652 61.463 35.9951 61.3979 36.3027 61.2705C36.6103 61.143 36.8896 60.9558 37.1244 60.7197L40.7664 57.0777C41.9845 57.7367 43.2675 58.2679 44.5949 58.6627V63.8141C44.5949 65.2117 45.732 66.3488 47.1297 66.3488H53.593C54.9906 66.3488 56.1277 65.2119 56.1277 63.8141V58.6627C57.4551 58.2677 58.7381 57.7366 59.9563 57.0777L60.4002 57.5217C60.4848 63.2023 63.2596 68.243 67.5059 71.4219C62.3936 74.1645 56.5576 75.7264 50.3613 75.7264C43.5529 75.7264 37.1756 73.8465 31.7199 70.5797C30.9643 63.3826 25.3896 57.6 18.2902 56.5273C15.5314 51.4023 13.9639 45.5449 13.9639 39.3279C13.9639 31.8633 16.2248 24.918 20.0949 19.1361C21.2659 19.9275 22.6472 20.3497 24.0605 20.348C27.9801 20.348 31.1691 17.1592 31.1691 13.2395C31.1706 11.8063 30.7362 10.4065 29.9236 9.22598C35.7539 5.25469 42.791 2.92969 50.3619 2.92969C54.2178 2.92969 58.0187 3.53184 61.6596 4.71953C61.8426 4.77986 62.0358 4.80348 62.228 4.78902C62.4201 4.77457 62.6076 4.72233 62.7796 4.6353C62.9515 4.54827 63.1046 4.42816 63.2301 4.28186C63.3556 4.13555 63.4509 3.96593 63.5107 3.7827C63.5705 3.59948 63.5935 3.40625 63.5785 3.21411C63.5635 3.02196 63.5107 2.83467 63.4231 2.66296C63.3356 2.49126 63.215 2.33852 63.0683 2.21349C62.9217 2.08847 62.7518 1.99362 62.5684 1.93437C58.6336 0.650781 54.527 0 50.3621 0C41.9531 0 34.1539 2.65508 27.7539 7.16816C26.642 6.48853 25.3639 6.12966 24.0607 6.13125C20.1412 6.13125 16.9523 9.31992 16.9523 13.2396C16.9511 14.5616 17.3208 15.8574 18.0193 16.9797C13.6174 23.3305 11.0342 31.0328 11.0342 39.3279C11.0342 45.435 12.4387 51.2182 14.9336 56.3801C6.61445 56.8838 0 63.8086 0 72.252C0 81.0217 7.13477 88.1566 15.9045 88.1566C24.1025 88.1566 30.8701 81.9213 31.718 73.9445C37.2697 76.9473 43.6193 78.6559 50.3619 78.6559C57.6645 78.6559 64.5062 76.652 70.3723 73.1699C72.7045 74.3047 75.3215 74.9422 78.0848 74.9422C85.8936 74.9422 92.8756 69.7022 95.0643 62.1992C95.1703 61.8271 95.1248 61.4281 94.9377 61.0894C94.7506 60.7507 94.437 60.4998 94.0656 60.3915C93.6941 60.2832 93.2948 60.3262 92.955 60.5113C92.6152 60.6963 92.3624 61.0083 92.2518 61.3791C90.4256 67.64 84.6 72.0125 78.085 72.0125C69.9475 72.0125 63.3271 65.3922 63.3271 57.2545C63.3271 49.1168 69.9475 42.4965 78.085 42.4965C85.3818 42.4965 91.6613 47.9406 92.6914 55.16C92.7185 55.3504 92.7829 55.5336 92.8809 55.6992C92.9789 55.8648 93.1085 56.0094 93.2624 56.1248C93.4162 56.2403 93.5914 56.3243 93.7777 56.372C93.9641 56.4198 94.158 56.4303 94.3484 56.4031C94.733 56.3482 95.08 56.1428 95.3132 55.8321C95.5463 55.5213 95.6465 55.1307 95.5916 54.7461C94.9605 50.3227 92.683 46.4584 89.4416 43.7344ZM24.0607 9.06094C26.3648 9.06094 28.2396 10.9355 28.2396 13.2396C28.2396 15.5439 26.365 17.4186 24.0607 17.4186C21.7564 17.4186 19.882 15.5439 19.882 13.2396C19.882 10.9355 21.7564 9.06094 24.0607 9.06094ZM15.9045 85.227C8.7502 85.227 2.92969 79.4064 2.92969 72.252C2.92969 65.0977 8.7502 59.2772 15.9045 59.2772C23.0588 59.2772 28.8793 65.0977 28.8793 72.252C28.8793 79.4064 23.059 85.227 15.9045 85.227ZM60.6715 54.143C60.0484 53.9805 59.368 54.052 58.7787 54.3818C57.6021 55.0402 56.3521 55.5577 55.0545 55.9236C53.9617 56.2318 53.1986 57.2359 53.1986 58.365V63.4189H47.5254V58.365C47.5254 57.2359 46.7623 56.2318 45.6691 55.9234C44.3716 55.5578 43.1218 55.0404 41.9455 54.3818C40.9545 53.8271 39.7047 53.9973 38.9061 54.7957L35.3332 58.3686L31.3215 54.357L34.8943 50.7842C35.693 49.9855 35.8631 48.7355 35.3082 47.7447C34.6499 46.5683 34.1324 45.3184 33.7666 44.0209C33.4588 42.9279 32.4547 42.1646 31.3252 42.1646H26.2713V36.4914H31.3252C32.4549 36.4914 33.4588 35.7281 33.7666 34.6352C34.1324 33.3376 34.6498 32.0877 35.3082 30.9113C35.8631 29.9205 35.693 28.6703 34.8943 27.8719L31.3215 24.2988L35.3332 20.2873L38.9061 23.8602C39.7049 24.6588 40.9547 24.8289 41.9455 24.274C43.1221 23.6156 44.3721 23.0981 45.6697 22.7322C46.7625 22.424 47.5256 21.4199 47.5256 20.2908V15.2369H53.1988V20.2908C53.1988 21.4199 53.9619 22.424 55.0551 22.7324C56.3526 23.0981 57.6024 23.6155 58.7787 24.274C59.7701 24.8291 61.0197 24.6588 61.8182 23.8602L65.391 20.2873L69.4027 24.2988L65.8299 27.8717C65.0312 28.6703 64.8611 29.9203 65.416 30.9111C66.0744 32.0876 66.5918 33.3374 66.9576 34.635C67.2654 35.7279 68.2695 36.4912 69.399 36.4912H74.4529V39.9422C67.4363 41.4125 61.9348 47.0533 60.6715 54.143Z" fill="white"/>
</svg>
